<svg width="16" height="16" viewBox="0 0 16 16" fill="none" xmlns="http://www.w3.org/2000/svg">
<g clip-path="url(#clip0_299_2679)">
<path d="M-1.25 0H0L-16 16H-17.25L-1.25 0Z" fill="white"/>
<path d="M0.75 0H2L-14 16H-15.25L0.75 0Z" fill="white"/>
<path d="M2.75 0H4L-12 16H-13.25L2.75 0Z" fill="white"/>
<path d="M4.75 0H6L-10 16H-11.25L4.75 0Z" fill="white"/>
<path d="M6.75 0H8L-8 16H-9.25L6.75 0Z" fill="white"/>
<path d="M8.75 0H10L-6 16H-7.25L8.75 0Z" fill="white"/>
<path d="M10.75 0H12L-4 16H-5.25L10.75 0Z" fill="white"/>
<path d="M12.75 0H14L-2 16H-3.25L12.75 0Z" fill="white"/>
<path d="M14.75 0H16L0 16H-1.25L14.75 0Z" fill="white"/>
<path d="M16.75 0H18L2 16H0.75L16.75 0Z" fill="white"/>
<path d="M18.75 0H20L4 16H2.75L18.75 0Z" fill="white"/>
<path d="M20.75 0H22L6 16H4.75L20.75 0Z" fill="white"/>
<path d="M22.75 0H24L8 16H6.75L22.75 0Z" fill="white"/>
<path d="M24.75 0H26L10 16H8.75L24.75 0Z" fill="white"/>
<path d="M26.75 0H28L12 16H10.75L26.75 0Z" fill="white"/>
<path d="M28.75 0H30L14 16H12.75L28.75 0Z" fill="white"/>
<path d="M30.75 0H32L16 16H14.75L30.75 0Z" fill="white"/>
</g>
<defs>
<clipPath id="clip0_299_2679">
<rect width="16" height="16" fill="white"/>
</clipPath>
</defs>
</svg>
