<svg width="16" height="16" viewBox="0 0 16 16" fill="none" xmlns="http://www.w3.org/2000/svg">
<g clip-path="url(#clip0_299_2806)">
<path d="M8 8L6.75 -4.4375H9.25L8 8Z" fill="white"/>
<path d="M8 8L11.625 -3.9375L13.875 -3L8 8Z" fill="white"/>
<path d="M8 8L15.9375 -1.6875L17.6875 0.0625L8 8Z" fill="white"/>
<path d="M8 8L19 2.125L20 4.375L8 8Z" fill="white"/>
<path d="M8 8L20.4375 6.75V9.25L8 8Z" fill="white"/>
<path d="M8 8L20 11.625L19 13.875L8 8Z" fill="white"/>
<path d="M8 8L17.6875 15.9375L15.9375 17.6875L8 8Z" fill="white"/>
<path d="M8 8L13.875 19L11.625 20L8 8Z" fill="white"/>
<path d="M8 8L9.25 20.4375H6.75L8 8Z" fill="white"/>
<path d="M8 8L4.375 20L2.125 19L8 8Z" fill="white"/>
<path d="M8 8L0.0625 17.6875L-1.6875 15.9375L8 8Z" fill="white"/>
<path d="M8 8L-4 13.875L-4.75 11.625L8 8Z" fill="white"/>
<path d="M8 8L-4.4375 9.25V6.75L8 8Z" fill="white"/>
<path d="M8 8L-4.75 4.375L-4 2.125L8 8Z" fill="white"/>
<path d="M8 8L-1.6875 0.0625L0.0625 -1.6875L8 8Z" fill="white"/>
<path d="M8 8L2.125 -3L4.375 -3.9375L8 8Z" fill="white"/>
</g>
<defs>
<clipPath id="clip0_299_2806">
<rect width="16" height="16" fill="white"/>
</clipPath>
</defs>
</svg>
