<svg width="32" height="32" viewBox="0 0 32 32" fill="none" xmlns="http://www.w3.org/2000/svg">
<rect x="12.791" y="13.6631" width="5.83938" height="5.84328" rx="2.91969" fill="#D9D9D9"/>
<rect opacity="0.5" x="7.71216" y="15.1035" width="2.9594" height="2.96138" rx="1.4797" fill="#D9D9D9"/>
<rect opacity="0.5" x="14.23" y="24.8311" width="2.9594" height="2.96138" rx="1.4797" transform="rotate(-90 14.23 24.8311)" fill="#D9D9D9"/>
<rect opacity="0.5" x="9.18872" y="23.3525" width="2.9594" height="2.96138" rx="1.4797" transform="rotate(-90 9.18872 23.3525)" fill="#D9D9D9"/>
<rect opacity="0.5" x="20.7507" y="15.1035" width="2.9594" height="2.96138" rx="1.4797" fill="#D9D9D9"/>
<rect opacity="0.5" x="9.19092" y="12.7734" width="2.9594" height="2.96138" rx="1.4797" transform="rotate(-90 9.19092 12.7734)" fill="#D9D9D9"/>
<rect opacity="0.15" x="8.69531" y="7.73535" width="1.97294" height="1.97425" rx="0.986468" transform="rotate(-90 8.69531 7.73535)" fill="#D9D9D9"/>
<rect opacity="0.15" x="8.69531" y="26.9072" width="1.97294" height="1.97425" rx="0.986468" transform="rotate(-90 8.69531 26.9072)" fill="#D9D9D9"/>
<rect opacity="0.15" x="14.7236" y="5.7627" width="1.97294" height="1.97425" rx="0.986468" transform="rotate(-90 14.7236 5.7627)" fill="#D9D9D9"/>
<rect opacity="0.15" x="14.7236" y="27.8945" width="1.97294" height="1.97425" rx="0.986468" transform="rotate(-90 14.7236 27.8945)" fill="#D9D9D9"/>
<rect opacity="0.15" x="20.7507" y="7.73633" width="1.97294" height="1.97425" rx="0.986468" transform="rotate(-90 20.7507 7.73633)" fill="#D9D9D9"/>
<rect opacity="0.15" x="20.7507" y="26.9072" width="1.97294" height="1.97425" rx="0.986468" transform="rotate(-90 20.7507 26.9072)" fill="#D9D9D9"/>
<rect opacity="0.15" x="24.2466" y="11.293" width="1.97294" height="1.97425" rx="0.986468" transform="rotate(-90 24.2466 11.293)" fill="#D9D9D9"/>
<rect opacity="0.15" x="26.2207" y="17.5703" width="1.97294" height="1.97425" rx="0.986468" transform="rotate(-90 26.2207 17.5703)" fill="#D9D9D9"/>
<rect opacity="0.15" x="24.2466" y="23.8477" width="1.97294" height="1.97425" rx="0.986468" transform="rotate(-90 24.2466 23.8477)" fill="#D9D9D9"/>
<rect opacity="0.15" x="5.2019" y="11.2939" width="1.97294" height="1.97425" rx="0.986468" transform="rotate(-90 5.2019 11.2939)" fill="#D9D9D9"/>
<rect opacity="0.15" x="3.60742" y="17.5713" width="1.97294" height="1.97425" rx="0.986468" transform="rotate(-90 3.60742 17.5713)" fill="#D9D9D9"/>
<rect opacity="0.15" x="5.2019" y="23.8467" width="1.97294" height="1.97425" rx="0.986468" transform="rotate(-90 5.2019 23.8467)" fill="#D9D9D9"/>
<rect opacity="0.05" x="6.11353" y="3.1875" width="1.21402" height="1.21483" rx="0.607009" transform="rotate(-90 6.11353 3.1875)" fill="#D9D9D9"/>
<rect opacity="0.05" x="6.11353" y="29.7041" width="1.21402" height="1.21483" rx="0.607009" transform="rotate(-90 6.11353 29.7041)" fill="#D9D9D9"/>
<rect opacity="0.05" x="15.104" y="1.21387" width="1.21402" height="1.21483" rx="0.607009" transform="rotate(-90 15.104 1.21387)" fill="#D9D9D9"/>
<rect opacity="0.05" x="15.104" y="31.6777" width="1.21402" height="1.21483" rx="0.607009" transform="rotate(-90 15.104 31.6777)" fill="#D9D9D9"/>
<rect opacity="0.05" x="24.0918" y="3.18652" width="1.21402" height="1.21483" rx="0.607009" transform="rotate(-90 24.0918 3.18652)" fill="#D9D9D9"/>
<rect opacity="0.05" x="24.0918" y="29.7012" width="1.21402" height="1.21483" rx="0.607009" transform="rotate(-90 24.0918 29.7012)" fill="#D9D9D9"/>
<rect opacity="0.05" x="28.7273" y="7.95117" width="1.21402" height="1.21483" rx="0.607009" transform="rotate(-90 28.7273 7.95117)" fill="#D9D9D9"/>
<rect opacity="0.05" x="1.97437" y="7.95117" width="1.21402" height="1.21483" rx="0.607009" transform="rotate(-90 1.97437 7.95117)" fill="#D9D9D9"/>
<rect opacity="0.05" x="30.7014" y="17.1914" width="1.21402" height="1.21483" rx="0.607009" transform="rotate(-90 30.7014 17.1914)" fill="#D9D9D9"/>
<rect opacity="0.05" y="17.1904" width="1.21402" height="1.21483" rx="0.607009" transform="rotate(-90 0 17.1904)" fill="#D9D9D9"/>
<rect opacity="0.05" x="28.7273" y="26.4277" width="1.21402" height="1.21483" rx="0.607009" transform="rotate(-90 28.7273 26.4277)" fill="#D9D9D9"/>
<rect opacity="0.05" x="1.97437" y="26.4258" width="1.21402" height="1.21483" rx="0.607009" transform="rotate(-90 1.97437 26.4258)" fill="#D9D9D9"/>
<rect opacity="0.5" x="19.271" y="12.7734" width="2.9594" height="2.96138" rx="1.4797" transform="rotate(-90 19.271 12.7734)" fill="#D9D9D9"/>
<rect opacity="0.5" x="14.23" y="11.293" width="2.9594" height="2.96138" rx="1.4797" transform="rotate(-90 14.23 11.293)" fill="#D9D9D9"/>
<rect opacity="0.5" x="19.271" y="23.3525" width="2.9594" height="2.96138" rx="1.4797" transform="rotate(-90 19.271 23.3525)" fill="#D9D9D9"/>
</svg>
