<svg width="31" height="31" viewBox="0 0 31 31" fill="none" xmlns="http://www.w3.org/2000/svg">
<path d="M17.4634 1.84277C18.9853 1.84277 20.2189 3.07683 20.2192 4.59863V10.1748H25.7095C27.2315 10.1748 28.4652 11.4087 28.4653 12.9307V26.2031C28.4653 27.7252 27.2316 28.959 25.7095 28.959H12.4233C10.9014 28.9588 9.66748 27.7251 9.66748 26.2031V20.6279H4.17725C2.65545 20.6278 1.42163 19.3938 1.42139 17.8721V4.59863C1.42172 3.07693 2.6555 1.84293 4.17725 1.84277H17.4634ZM11.0483 9.88867C10.1783 9.88867 9.47227 10.5939 9.47217 11.4639V19.0508C9.47217 19.9209 10.1783 20.627 11.0483 20.627H18.6431C19.5131 20.6269 20.2183 19.9208 20.2183 19.0508V11.4639C20.2182 10.5939 19.513 9.88877 18.6431 9.88867H11.0483Z" fill="#D9D9D9" fill-opacity="0.5"/>
<path d="M19.0068 0.015625C20.6254 0.179459 21.8895 1.54724 21.8896 3.20898V8.53809H26.8027L27.1289 8.55371C28.7474 8.7177 30.0117 10.0853 30.0117 11.7471V27.2002L29.9932 27.5293C29.8399 29.04 28.6396 30.2404 27.1289 30.3936L26.8027 30.4121H11.3311L11.002 30.3936C9.49196 30.2397 8.29083 29.0395 8.1377 27.5293L8.12207 27.2031V21.874H3.20898L2.87988 21.8555C1.36998 21.7015 0.168657 20.5014 0.015625 18.9912L0 18.665V3.20898C0.000175689 1.54799 1.26236 0.180471 2.87988 0.015625L3.20898 0H18.6807L19.0068 0.015625ZM21.8896 18.6621L21.8711 18.9912C21.7179 20.5021 20.5177 21.7025 19.0068 21.8555L18.6807 21.874H11.3311V27.2031H26.8027V11.7471H21.8896V18.6621ZM3.20898 18.665H8.12207V11.7471C8.1221 10.0859 9.3842 8.71843 11.002 8.55371L11.3311 8.53809H18.6807V3.20898H3.20898V18.665ZM11.3311 18.665H18.6807V11.7471H11.3311V18.665Z" fill="white"/>
</svg>
