<svg width="32" height="32" viewBox="0 0 32 32" fill="none" xmlns="http://www.w3.org/2000/svg">
<path d="M17.125 4.52832H28.834C29.1101 4.52832 29.334 4.75218 29.334 5.02832V26.9727C29.334 27.2488 29.1101 27.4727 28.834 27.4727H3.16602C2.88987 27.4727 2.66602 27.2488 2.66602 26.9727V11.0283C2.66602 10.7522 2.88987 10.5283 3.16602 10.5283H8.29199C9.09325 10.5283 9.87021 10.2529 10.4932 9.74902L16.8105 4.63965C16.8995 4.56775 17.0106 4.52832 17.125 4.52832Z" stroke="white" stroke-width="3"/>
<path d="M4.24024 3.90137H16L9.34829 10.162H2.24023V5.90137C2.24023 4.7968 3.13567 3.90137 4.24024 3.90137Z" fill="white"/>
</svg>
