<svg width="32" height="32" viewBox="0 0 32 32" fill="none" xmlns="http://www.w3.org/2000/svg">
<path d="M12.1741 14.2275C13.0918 15.2302 13.0919 16.7679 12.1741 17.7705L6.59497 23.8584C4.97833 25.622 2.03798 24.478 2.03735 22.0859L2.03735 9.89746L2.0686 9.49609L2.06958 9.48828L2.07056 9.48144C2.39937 7.38971 5.07794 6.48469 6.59497 8.13965L12.1741 14.2275ZM9.62817 16.3857C9.82819 16.1676 9.82815 15.8325 9.62817 15.6143L5.84204 11.4834C5.49045 11.0998 4.85111 11.3479 4.85083 11.8682L4.85083 20.1299C4.85097 20.6501 5.49034 20.8989 5.84204 20.5156L9.62817 16.3857ZM17.4045 29.3828C17.4045 30.1598 16.7743 30.79 15.9973 30.79C15.2205 30.7899 14.5911 30.1597 14.5911 29.3828L14.5911 2.61719C14.5911 1.84031 15.2205 1.21013 15.9973 1.20996C16.7743 1.20996 17.4045 1.8402 17.4045 2.61719L17.4045 29.3828ZM29.9631 22.0859C29.9625 24.4779 27.0222 25.6218 25.4055 23.8584L19.8254 17.7705C18.9077 16.768 18.908 15.2301 19.8254 14.2275L25.4055 8.13965C26.9225 6.48469 29.6011 7.38971 29.9299 9.48145L29.9309 9.48828L29.9319 9.49609L29.9622 9.89746L29.9631 9.9043L29.9631 22.0859ZM27.1497 11.8682C27.1494 11.3479 26.5091 11.0998 26.1575 11.4834L22.3713 15.6143C22.1714 15.8324 22.1714 16.1676 22.3713 16.3857L26.1575 20.5156C26.5091 20.8992 27.1495 20.6502 27.1497 20.1299L27.1497 11.8682Z" fill="white" stroke="white" stroke-width="0.380449"/>
</svg>
