<svg width="32" height="32" viewBox="0 0 32 32" fill="none" xmlns="http://www.w3.org/2000/svg">
<path d="M28.4061 20.1021C28.4053 20.952 27.7163 21.6447 26.8663 21.6452L7.91293 21.6485L12.1665 26.2913C12.7067 26.8815 12.6686 27.7997 12.0793 28.3409C11.4893 28.8803 10.5708 28.842 10.0297 28.2537L4.35707 22.0645C3.3427 20.9564 3.34373 19.255 4.35707 18.1463L6.16184 16.1C6.70347 15.5119 7.62174 15.4723 8.21149 16.0128C8.79977 16.5538 8.83786 17.4724 8.29871 18.0625L7.90957 18.5657L26.8663 18.5623C27.7161 18.5627 28.405 19.2524 28.4061 20.1021Z" fill="white"/>
<path d="M3.5944 11.8989C3.59518 11.049 4.28417 10.3563 5.13415 10.3558L24.0876 10.3525L19.8339 5.70972C19.2938 5.11951 19.3319 4.20124 19.9212 3.66006C20.5112 3.12064 21.4297 3.15893 21.9708 3.74728L27.6434 9.93649C28.6578 11.0445 28.6568 12.746 27.6434 13.8546L25.8387 15.9009C25.297 16.4891 24.3788 16.5287 23.789 15.9882C23.2007 15.4471 23.1626 14.5286 23.7018 13.9385L24.0909 13.4353L5.13415 13.4387C4.28436 13.4382 3.59548 12.7486 3.5944 11.8989Z" fill="white"/>
</svg>
