<svg width="32" height="32" viewBox="0 0 32 32" fill="none" xmlns="http://www.w3.org/2000/svg">
<path d="M8.10889 26.4412C7.5566 26.4412 7.10889 25.9935 7.10889 25.4412V6.55957C7.10889 6.00729 7.5566 5.55957 8.10889 5.55957H10.5238C11.0761 5.55957 11.5238 6.00729 11.5238 6.55957V13.1753C11.5238 13.7276 11.9715 14.1753 12.5238 14.1753H19.4862C20.0385 14.1753 20.4862 13.7276 20.4862 13.1753V6.55957C20.4862 6.00729 20.9339 5.55957 21.4862 5.55957H23.8909C24.4432 5.55957 24.8909 6.00729 24.8909 6.55957V25.4412C24.8909 25.9935 24.4432 26.4412 23.8909 26.4412H21.4862C20.9339 26.4412 20.4862 25.9935 20.4862 25.4412V18.8153C20.4862 18.263 20.0385 17.8153 19.4862 17.8153H12.5238C11.9715 17.8153 11.5238 18.263 11.5238 18.8153V25.4412C11.5238 25.9935 11.0761 26.4412 10.5238 26.4412H8.10889Z" fill="white"/>
</svg>
