<svg width="31" height="31" viewBox="0 0 31 31" fill="none" xmlns="http://www.w3.org/2000/svg">
<path d="M23.616 4.4132C24.2796 3.75015 25.3569 3.75043 26.0207 4.4132C26.6833 5.07696 26.6837 6.15434 26.0207 6.81786L17.619 15.2163L26.0239 23.618C26.6867 24.2817 26.6837 25.3591 26.0207 26.0226C25.357 26.6848 24.2827 26.6851 23.6193 26.0226L15.2143 17.6177L6.81266 26.0226C6.14908 26.6848 5.07474 26.685 4.41125 26.0226C3.74875 25.3591 3.74575 24.2816 4.40799 23.618L12.8097 15.2163L4.41125 6.81786C3.74877 6.1544 3.74907 5.07684 4.41125 4.4132C5.07482 3.75015 6.15216 3.75043 6.81591 4.4132L15.2143 12.8116L23.616 4.4132Z" fill="white"/>
<path d="M19.6332 24.3924C16.9146 25.1385 13.4807 25.1696 10.7141 24.4737L13.6069 21.5777C14.0602 21.6176 14.5367 21.6461 15.0321 21.6461C15.6501 21.6459 16.2385 21.6095 16.7892 21.5484L19.6332 24.3924Z" fill="white"/>
<path d="M6.50353 11.266C5.4136 12.3121 4.59224 13.2381 4.19649 13.7032C3.86424 14.0937 3.45654 14.4602 3.33094 14.5785C3.45277 14.6936 3.86099 15.0658 4.19649 15.4603C4.66722 16.0142 5.74252 17.2231 7.15757 18.5093L4.80172 20.8651C3.8675 20.009 3.0754 19.1976 2.49142 18.5613L1.65841 17.6177L1.02715 16.9864C-0.342067 15.6833 -0.342699 13.4765 1.02715 12.1738L1.65841 11.5426C2.08518 11.0411 2.97321 10.0538 4.15419 8.91665L6.50353 11.266Z" fill="white"/>
<path d="M26.1573 9.03379C27.4383 10.1994 28.4142 11.1958 28.8353 11.6402C28.9891 11.8024 29.1596 11.9472 29.3267 12.0958C30.8062 13.4117 30.805 15.7477 29.3267 17.0645L28.8353 17.5201L27.9503 18.4247C27.3284 19.0456 26.4736 19.8576 25.487 20.7252L23.1247 18.3661C24.694 17.0002 25.933 15.7376 26.4144 15.2293C26.6858 14.9428 27.0011 14.67 27.101 14.5818C27.0018 14.4942 26.6864 14.2212 26.4144 13.9342C26.0038 13.501 25.0442 12.5178 23.7982 11.3896L26.1573 9.03379Z" fill="white"/>
<path d="M9.73795 4.97938C12.9495 3.89637 17.4528 3.93466 20.5898 5.08025L17.8858 7.78103C17.0469 7.61965 16.0819 7.51754 15.0321 7.51746C14.1068 7.51744 13.2463 7.59404 12.481 7.72245L9.73795 4.97938Z" fill="white"/>
</svg>
