<svg width="31" height="31" viewBox="0 0 31 31" fill="none" xmlns="http://www.w3.org/2000/svg">
<g clip-path="url(#clip0_305_2862)">
<path d="M20.9148 24.29C16.7507 28.4542 9.99926 28.4542 5.83511 24.29C1.67096 20.1259 1.67096 13.3744 5.83511 9.2103L8.64697 6.39844L13.2676 11.0191L10.211 14.0757C8.59848 15.6882 8.59736 18.3026 10.2099 19.9152C11.8225 21.5278 14.438 21.5278 16.0506 19.9152L19.1072 16.8587L23.7267 21.4782L20.9148 24.29Z" fill="white"/>
<mask id="path-2-inside-1_305_2862" fill="white">
<path d="M12.9023 2.14164C13.0976 1.94638 13.4142 1.94638 13.6094 2.14164L17.5195 6.05171C17.7148 6.24698 17.7148 6.56356 17.5195 6.75882L13.2559 11.0225L8.63868 6.40527L12.9023 2.14164Z"/>
</mask>
<path d="M12.9023 2.14164C13.0976 1.94638 13.4142 1.94638 13.6094 2.14164L17.5195 6.05171C17.7148 6.24698 17.7148 6.56356 17.5195 6.75882L13.2559 11.0225L8.63868 6.40527L12.9023 2.14164Z" fill="white" fill-opacity="0.15"/>
<path d="M12.1952 1.43453C12.781 0.848746 13.7307 0.848746 14.3165 1.43453L18.2266 5.34461C18.8124 5.93039 18.8124 6.88014 18.2266 7.46593L16.4588 6.40527L13.2559 3.2023L12.1952 1.43453ZM13.2559 3.2023M13.2559 11.0225L8.63868 6.40527L13.2559 11.0225M7.93157 5.69816L12.1952 1.43453C12.781 0.848746 13.7307 0.848746 14.3165 1.43453L13.2559 3.2023L9.34578 7.11237L7.93157 5.69816ZM18.2266 5.34461C18.8124 5.93039 18.8124 6.88014 18.2266 7.46593L13.963 11.7296L12.5488 10.3153L16.4588 6.40527L18.2266 5.34461Z" fill="white" mask="url(#path-2-inside-1_305_2862)"/>
<mask id="path-4-inside-2_305_2862" fill="white">
<path d="M23.3652 12.6045C23.5605 12.4093 23.877 12.4093 24.0723 12.6045L27.9824 16.5146C28.1776 16.7099 28.1776 17.0264 27.9824 17.2217L23.7188 21.4853L19.1016 16.8682L23.3652 12.6045Z"/>
</mask>
<path d="M23.3652 12.6045C23.5605 12.4093 23.877 12.4093 24.0723 12.6045L27.9824 16.5146C28.1776 16.7099 28.1776 17.0264 27.9824 17.2217L23.7188 21.4853L19.1016 16.8682L23.3652 12.6045Z" fill="white" fill-opacity="0.15"/>
<path d="M22.6581 11.8974C23.2439 11.3116 24.1936 11.3116 24.7794 11.8974L28.6895 15.8075C29.2753 16.3933 29.2753 17.343 28.6895 17.9288L26.9217 16.8682L23.7188 13.6652L22.6581 11.8974ZM23.7188 13.6652M23.7188 21.4853L19.1016 16.8682L23.7188 21.4853M18.3945 16.1611L22.6581 11.8974C23.2439 11.3116 24.1936 11.3116 24.7794 11.8974L23.7188 13.6652L19.8087 17.5753L18.3945 16.1611ZM28.6895 15.8075C29.2753 16.3933 29.2753 17.343 28.6895 17.9288L24.4259 22.1924L23.0116 20.7782L26.9217 16.8682L28.6895 15.8075Z" fill="white" mask="url(#path-4-inside-2_305_2862)"/>
</g>
<defs>
<clipPath id="clip0_305_2862">
<rect width="30.44" height="30.44" fill="white"/>
</clipPath>
</defs>
</svg>
