<svg width="32" height="32" viewBox="0 0 32 32" fill="none" xmlns="http://www.w3.org/2000/svg">
<path d="M24.5823 22.5689C24.5823 23.6194 23.7307 24.4711 22.6801 24.4711C21.6295 24.4711 20.7778 23.6194 20.7778 22.5689C20.7778 21.5183 21.6295 20.6666 22.6801 20.6666C23.7307 20.6666 24.5823 21.5183 24.5823 22.5689Z" fill="white"/>
<path fill-rule="evenodd" clip-rule="evenodd" d="M24.3854 0.823095C28.2229 1.21215 31.2179 4.45108 31.2179 8.3912V23.6092L31.177 24.3857C30.788 28.2232 27.549 31.2181 23.6089 31.2181H8.39096C4.18864 31.2181 0.781982 27.8115 0.781982 23.6092V8.3912C0.781982 4.18888 4.18864 0.782227 8.39096 0.782227H23.6089L24.3854 0.823095ZM8.39096 4.58671C6.2898 4.58671 4.58647 6.29004 4.58647 8.3912V23.6092C4.58647 25.7103 6.2898 27.4136 8.39096 27.4136H23.6089C25.7101 27.4136 27.4134 25.7103 27.4134 23.6092V8.3912C27.4134 6.29004 25.7101 4.58671 23.6089 4.58671H8.39096Z" fill="white"/>
<path d="M17.9021 22.5686C17.9021 23.6192 17.0505 24.4708 15.9999 24.4708C14.9493 24.4708 14.0977 23.6192 14.0977 22.5686C14.0977 21.518 14.9493 20.6663 15.9999 20.6663C17.0505 20.6663 17.9021 21.518 17.9021 22.5686Z" fill="white" fill-opacity="0.46"/>
<path d="M24.5823 15.9999C24.5823 17.0505 23.7306 17.9021 22.68 17.9021C21.6295 17.9021 20.7778 17.0505 20.7778 15.9999C20.7778 14.9493 21.6295 14.0977 22.68 14.0977C23.7306 14.0977 24.5823 14.9493 24.5823 15.9999Z" fill="white" fill-opacity="0.46"/>
<path d="M11.2222 22.5689C11.2222 23.6195 10.3705 24.4712 9.31997 24.4712C8.26939 24.4712 7.41772 23.6195 7.41772 22.5689C7.41772 21.5183 8.26939 20.6667 9.31997 20.6667C10.3705 20.6667 11.2222 21.5183 11.2222 22.5689Z" fill="white" fill-opacity="0.06"/>
<path d="M17.9024 16.0002C17.9024 17.0508 17.0507 17.9025 16.0001 17.9025C14.9495 17.9025 14.0979 17.0508 14.0979 16.0002C14.0979 14.9496 14.9495 14.098 16.0001 14.098C17.0507 14.098 17.9024 14.9496 17.9024 16.0002Z" fill="white" fill-opacity="0.06"/>
<path d="M22.6803 7.5293C23.7308 7.5293 24.5825 8.38096 24.5825 9.43154C24.5825 10.4821 23.7308 11.3338 22.6803 11.3338C21.6297 11.3338 20.778 10.4821 20.778 9.43154C20.778 8.38096 21.6297 7.5293 22.6803 7.5293Z" fill="white" fill-opacity="0.06"/>
</svg>
