<svg width="32" height="32" viewBox="0 0 32 32" fill="none" xmlns="http://www.w3.org/2000/svg">
<path d="M12.1011 12.2354C13.7003 10.6362 16.2017 10.4908 17.9663 11.7969L18.1343 11.9277L18.1421 11.9336L24.0591 17.8506L24.0649 17.8574C25.5096 19.6281 25.407 22.2399 23.7563 23.8906V23.8916L18.1479 29.4658L18.1421 29.4727L18.1343 29.4785C16.3636 30.9231 13.7518 30.8206 12.1011 29.1699L6.82178 23.8906C5.0617 22.1303 5.06186 19.277 6.82178 17.5166L12.1011 12.2354ZM16.6821 14.0303C15.9637 13.3121 14.8259 13.2638 14.0532 13.8877L8.6167 19.3125C7.84877 20.0814 7.84923 21.3273 8.61768 22.0957L13.8979 27.375C14.6667 28.1437 15.9134 28.1436 16.6821 27.375L21.9614 22.0957C22.6815 21.3756 22.7277 20.2348 22.0991 19.4619L16.6821 14.0303ZM12.1011 2.83008C13.8616 1.06982 16.7176 1.06968 18.478 2.83008L23.9517 8.30469C23.956 8.25521 23.9595 8.20539 23.9595 8.15527V6.56445C23.9595 5.86329 24.5278 5.29492 25.229 5.29492C25.93 5.29512 26.4985 5.86341 26.4985 6.56445V10.4141C26.4985 11.3061 26.3844 11.9041 25.9878 12.2568C25.7895 12.4331 25.5365 12.5328 25.2378 12.5898C24.9407 12.6465 24.5842 12.6641 24.1655 12.6641L21.0015 12.6631H20.9224L20.8657 12.6064L18.7407 10.4473L18.4214 10.124H18.8765L21.9907 10.126C22.0515 10.1259 22.1115 10.1207 22.1714 10.1143L16.6821 4.62598C15.9133 3.85718 14.6648 3.85718 13.896 4.62598L8.27393 10.248C7.77814 10.7438 6.97381 10.7438 6.47803 10.248C5.98256 9.75228 5.98244 8.94883 6.47803 8.45312L12.1011 2.83008Z" fill="white" stroke="white" stroke-width="0.380449"/>
</svg>
