<svg width="32" height="32" viewBox="0 0 32 32" fill="none" xmlns="http://www.w3.org/2000/svg">
<path d="M5.07886 3.08984C4.08458 3.08984 3.27825 3.89635 3.27808 4.89062L3.27515 23.623C3.27516 25.4273 3.68664 26.7624 4.5896 27.6426C5.49154 28.5216 6.84651 28.9102 8.64819 28.9102H8.65112L26.9558 28.5996C27.9378 28.5828 28.7253 27.781 28.7253 26.7988C28.7251 25.7929 27.9002 24.9819 26.8943 24.999L8.64722 25.3086C8.20086 25.3086 7.86878 25.3034 7.61694 25.2686C7.36545 25.2337 7.22223 25.1734 7.13062 25.0889C7.04072 25.0059 6.9736 24.8744 6.93237 24.6348C6.89084 24.3933 6.87964 24.0684 6.87964 23.623V4.89062C6.87963 3.89623 6.07325 3.08984 5.07886 3.08984ZM9.56519 16.625H9.75464L11.033 16.626C12.4367 16.6261 13.5648 17.0966 14.3416 17.8691C15.1187 18.6422 15.5574 19.7311 15.5574 20.9902L15.5583 22.2578V22.4482H19.1628V22.2578L19.1619 20.9893C19.1614 18.5608 18.3234 16.5644 16.8787 15.1758C15.4348 13.788 13.4002 13.0218 11.033 13.0215H11.032L9.75464 13.0244H9.56519V16.625Z" fill="white" stroke="white" stroke-width="0.380449"/>
</svg>
