<svg width="32" height="32" viewBox="0 0 32 32" fill="none" xmlns="http://www.w3.org/2000/svg">
<path d="M3.21436 19.3457C4.20837 19.3457 5.015 20.1515 5.01514 21.1455V23.9619C5.01514 25.6333 6.3694 26.9881 8.04053 26.9883H10.855C11.8483 26.9883 12.6538 27.7938 12.6538 28.7871C12.6538 29.7804 11.8483 30.5859 10.855 30.5859H8.03076V30.585L7.37451 30.5508H7.36475V30.5498C4.02474 30.2109 1.41455 27.3919 1.41455 23.9619V21.1455C1.41468 20.1516 2.22051 19.3459 3.21436 19.3457ZM28.7866 19.3457C29.7798 19.3457 30.5854 20.1513 30.5854 21.1445V23.9619C30.5854 27.6195 27.6193 30.585 23.9624 30.5859H21.1421C20.1488 30.5859 19.3433 29.7804 19.3433 28.7871C19.3433 27.7938 20.1488 26.9883 21.1421 26.9883H23.9624C25.633 26.9874 26.9888 25.6327 26.9888 23.9619V21.1445C26.9888 20.1514 27.7935 19.3458 28.7866 19.3457ZM10.855 1.41504C11.8483 1.41507 12.6538 2.22056 12.6538 3.21387C12.6538 4.20715 11.8483 5.01267 10.855 5.0127H8.04053C6.3694 5.01284 5.01514 6.36766 5.01514 8.03906V10.8555C5.01499 11.8494 4.20836 12.6553 3.21436 12.6553C2.22052 12.6551 1.41469 11.8493 1.41455 10.8555V8.03906C1.41455 4.38094 4.38303 1.41519 8.04053 1.41504H10.855ZM23.9624 1.41504C27.6193 1.41593 30.5854 4.38146 30.5854 8.03906V10.8564C30.5854 11.8497 29.7798 12.6553 28.7866 12.6553C27.7935 12.6552 26.9888 11.8496 26.9888 10.8564V8.03906C26.9888 6.36824 25.633 5.01359 23.9624 5.0127H21.1421C20.1488 5.0127 19.3433 4.20717 19.3433 3.21387C19.3433 2.22054 20.1488 1.41504 21.1421 1.41504H23.9624Z" fill="white" stroke="white" stroke-width="0.380449"/>
</svg>
