<svg width="31" height="31" viewBox="0 0 31 31" fill="none" xmlns="http://www.w3.org/2000/svg">
<rect x="1.90224" y="1.90224" width="18.0841" height="18.0681" rx="1.90224" stroke="white" stroke-width="3.80449"/>
<path d="M27.1284 8.55371C28.747 8.71765 30.0112 10.0852 30.0112 11.7471V27.2002L29.9927 27.5293C29.8394 29.0399 28.6391 30.2405 27.1284 30.3936L26.8022 30.4121H11.3306L11.0015 30.3936C9.49152 30.2397 8.29037 29.0394 8.13721 27.5293L8.12158 27.2031V21.873H11.3306V27.2031H26.8022V11.7471H21.8882V8.53809H26.8022L27.1284 8.55371Z" fill="white"/>
<path d="M26.8013 8.53809C28.5735 8.53819 30.0103 9.97483 30.0103 11.7471V27.2012C30.0103 28.9734 28.5735 30.4101 26.8013 30.4102H11.3306C9.55827 30.4101 8.12158 28.9735 8.12158 27.2012V21.873H18.0835C20.1846 21.873 21.8881 20.1695 21.8882 18.0684V8.53809H26.8013Z" fill="#D9D9D9" fill-opacity="0.5"/>
</svg>
