<svg width="31" height="31" viewBox="0 0 31 31" fill="none" xmlns="http://www.w3.org/2000/svg">
<mask id="path-1-inside-1_146_2276" fill="white">
<path d="M18.084 0C20.1851 0 21.8887 1.70353 21.8887 3.80469V8.53809H26.2061C28.3072 8.53809 30.0107 10.2416 30.0107 12.3428V26.6064C30.0105 28.7074 28.3071 30.4102 26.2061 30.4102H11.9268C9.82572 30.4102 8.12227 28.7074 8.12207 26.6064V21.873H3.80469C1.7036 21.873 5.18071e-05 20.1694 0 18.0684V3.80469C0 1.70356 1.70357 5.3675e-05 3.80469 0H18.084Z"/>
</mask>
<path d="M18.084 0C20.1851 0 21.8887 1.70353 21.8887 3.80469V8.53809H26.2061C28.3072 8.53809 30.0107 10.2416 30.0107 12.3428V26.6064C30.0105 28.7074 28.3071 30.4102 26.2061 30.4102H11.9268C9.82572 30.4102 8.12227 28.7074 8.12207 26.6064V21.873H3.80469C1.7036 21.873 5.18071e-05 20.1694 0 18.0684V3.80469C0 1.70356 1.70357 5.3675e-05 3.80469 0H18.084Z" fill="#D9D9D9" fill-opacity="0.5"/>
<path d="M21.8887 8.53809H18.0842V12.3426H21.8887V8.53809ZM30.0107 26.6064L33.8152 26.6068V26.6064H30.0107ZM8.12207 26.6064H4.31758V26.6068L8.12207 26.6064ZM8.12207 21.873H11.9266V18.0686H8.12207V21.873ZM3.80469 21.873L3.8046 25.6775H3.80469V21.873ZM0 18.0684H-3.80449V18.0685L0 18.0684ZM3.80469 0V-3.80449H3.80459L3.80469 0ZM18.084 0V3.80449L18.0842 3.80469H21.8887H25.6932C25.6932 -0.397634 22.2863 -3.80449 18.084 -3.80449V0ZM21.8887 3.80469H18.0842V8.53809H21.8887H25.6932V3.80469H21.8887ZM21.8887 8.53809V12.3426H26.2061V8.53809V4.7336H21.8887V8.53809ZM26.2061 8.53809V12.3426L26.2063 12.3428H30.0107H33.8152C33.8152 8.14045 30.4084 4.7336 26.2061 4.7336V8.53809ZM30.0107 12.3428H26.2063V26.6064H30.0107H33.8152V12.3428H30.0107ZM30.0107 26.6064L26.2063 26.6061L26.2061 26.6057V30.4102V34.2146C30.4073 34.2146 33.8148 30.8096 33.8152 26.6068L30.0107 26.6064ZM26.2061 30.4102V26.6057H11.9268V30.4102V34.2146H26.2061V30.4102ZM11.9268 30.4102V26.6057L11.9266 26.6061L8.12207 26.6064L4.31758 26.6068C4.31799 30.8096 7.72547 34.2146 11.9268 34.2146V30.4102ZM8.12207 26.6064H11.9266V21.873H8.12207H4.31758V26.6064H8.12207ZM8.12207 21.873V18.0686H3.80469V21.873V25.6775H8.12207V21.873ZM3.80469 21.873L3.80478 18.0686L3.80449 18.0683L0 18.0684L-3.80449 18.0685C-3.80438 22.2706 -0.397581 25.6774 3.8046 25.6775L3.80469 21.873ZM0 18.0684H3.80449V3.80469H0H-3.80449V18.0684H0ZM0 3.80469H3.80449L3.80478 3.80449L3.80469 0L3.80459 -3.80449C-0.397513 -3.80438 -3.80449 -0.397698 -3.80449 3.80469H0ZM3.80469 0V3.80449H18.084V0V-3.80449H3.80469V0Z" fill="white" mask="url(#path-1-inside-1_146_2276)"/>
</svg>
