<svg width="32" height="32" viewBox="0 0 32 32" fill="none" xmlns="http://www.w3.org/2000/svg">
<path d="M14.291 19.8965C15.2573 19.0121 16.7398 19.0119 17.7061 19.8965L23.7939 25.4756C25.4936 27.0336 24.3913 29.8675 22.0859 29.8682H9.9043V29.8672L9.50293 29.8369L9.49609 29.8359C7.48063 29.5191 6.6091 26.9371 8.20312 25.4756L14.291 19.8965ZM16.4502 22.3018C16.1957 22.0684 15.8044 22.0685 15.5498 22.3018L11.4189 26.0879C10.9714 26.4981 11.2612 27.2439 11.8682 27.2441H20.1299C20.7369 27.244 21.0273 26.4982 20.5801 26.0879L16.4502 22.3018ZM29.3828 14.6904C30.1073 14.6904 30.6943 15.2785 30.6943 16.0029C30.6942 16.7272 30.1072 17.3145 29.3828 17.3145H2.61719C1.89284 17.3145 1.30584 16.7272 1.30566 16.0029C1.30566 15.2785 1.89273 14.6904 2.61719 14.6904H29.3828ZM9.50293 2.16406L9.90527 2.13281L9.91211 2.13184V2.13281H22.0859C24.3913 2.13343 25.4936 4.96739 23.7939 6.52539L17.7061 12.1045C16.7398 12.989 15.2573 12.9889 14.291 12.1045L8.20312 6.52539C6.60878 5.06392 7.48054 2.4809 9.49609 2.16406L9.50293 2.16309V2.16406ZM11.8682 4.75586C11.2612 4.75614 10.9715 5.5019 11.4189 5.91211L15.5498 9.69922C15.8044 9.93248 16.1957 9.93253 16.4502 9.69922L20.5801 5.91211C21.027 5.50175 20.7368 4.756 20.1299 4.75586H11.8682Z" fill="white" stroke="white" stroke-width="0.190224"/>
</svg>
