<svg width="32" height="32" viewBox="0 0 32 32" fill="none" xmlns="http://www.w3.org/2000/svg">
<path d="M16.03 6.02246C16.6536 6.5968 16.7317 7.54587 16.2351 8.21191L16.1277 8.34082L16.0085 8.45898C15.3914 9.00659 14.4485 9.01004 13.823 8.44922L13.822 8.4502L13.6267 8.29785L13.6287 26.8672C13.6282 27.822 12.8534 28.5963 11.8992 28.5977L11.8982 28.5977C10.9441 28.5966 10.1663 27.8227 10.1658 26.8672L10.1628 8.3457L5.83765 12.3076C5.17034 12.9183 4.13171 12.8758 3.51929 12.209C2.90942 11.5419 2.95231 10.5029 3.61792 9.89062L3.6189 9.89062L9.80737 4.21777C10.9146 3.20417 12.5778 3.14211 13.7546 4.02832L13.9832 4.21777L16.0261 6.02051L16.03 6.02246Z" fill="white" stroke="white" stroke-width="0.380449"/>
<path d="M15.9702 25.9785C15.3466 25.4042 15.2686 24.4551 15.7651 23.7891L15.8726 23.6602L15.9917 23.542C16.6089 22.9944 17.5517 22.9909 18.1772 23.5518L18.1782 23.5508L18.3735 23.7031L18.3716 5.13379C18.3721 4.17896 19.1468 3.40467 20.1011 3.40332L20.1021 3.40332C21.0561 3.40437 21.834 4.17832 21.8345 5.13379L21.8374 23.6553L26.1626 19.6934C26.8299 19.0827 27.8685 19.1252 28.481 19.792C29.0908 20.459 29.0479 21.498 28.3823 22.1104L28.3813 22.1104L22.1929 27.7832C21.0857 28.7968 19.4224 28.8589 18.2456 27.9727L18.0171 27.7832L15.9741 25.9805L15.9702 25.9785Z" fill="white" stroke="white" stroke-width="0.380449"/>
</svg>
