<svg width="32" height="32" viewBox="0 0 32 32" fill="none" xmlns="http://www.w3.org/2000/svg">
<path d="M8.70625 26.0565C8.25992 26.0565 7.86762 25.7607 7.74484 25.3316L2.56236 7.21943C2.37955 6.58053 2.85923 5.94434 3.52377 5.94434H6.0528C6.51581 5.94434 6.91827 6.26218 7.02557 6.71259L10.1521 19.8366C10.1636 19.8847 10.2066 19.9187 10.2561 19.9187C10.3047 19.9187 10.3472 19.886 10.3596 19.839L13.8154 6.69014C13.9309 6.25068 14.3282 5.94434 14.7826 5.94434H17.2166C17.6714 5.94434 18.069 6.25126 18.1841 6.69128L21.6296 19.8637C21.6426 19.9135 21.6876 19.9482 21.7391 19.9482C21.7915 19.9482 21.837 19.9122 21.8491 19.8612L24.9748 6.71305C25.082 6.26242 25.4845 5.94434 25.9477 5.94434H28.4763C29.1409 5.94434 29.6206 6.58053 29.4378 7.21943L24.2553 25.3316C24.1325 25.7607 23.7402 26.0565 23.2939 26.0565H20.654C20.2094 26.0565 19.8182 25.763 19.6938 25.3361L16.0957 12.9824C16.0827 12.9377 16.0417 12.907 15.9952 12.907C15.9486 12.907 15.9077 12.9377 15.8947 12.9825L12.3059 25.3355C12.1818 25.7626 11.7905 26.0565 11.3456 26.0565H8.70625Z" fill="white"/>
</svg>
