<svg width="32" height="32" viewBox="0 0 32 32" fill="none" xmlns="http://www.w3.org/2000/svg">
<path d="M9.7928 5.81934C10.4288 5.81934 11.0268 6.1218 11.4037 6.63404L15.8633 12.695C15.893 12.7353 15.9401 12.7592 15.9901 12.7592C16.0401 12.7592 16.0871 12.7354 16.1168 12.6953L20.5961 6.63105C20.9732 6.12056 21.5702 5.81934 22.2048 5.81934H24.1234C24.935 5.81934 25.4086 6.73524 24.9393 7.39748L19.2571 15.4167C19.0098 15.7658 19.0119 16.2335 19.2624 16.5803L25.0516 24.596C25.5293 25.2573 25.0567 26.1815 24.2409 26.1815H22.2496C21.6177 26.1815 21.023 25.8828 20.6456 25.3761L16.1171 19.2955C16.0872 19.2553 16.0401 19.2317 15.99 19.2317C15.94 19.2317 15.8929 19.2553 15.863 19.2955L11.3345 25.3761C10.9571 25.8828 10.3623 26.1815 9.73046 26.1815H7.76211C6.94575 26.1815 6.47336 25.2561 6.95219 24.5949L12.755 16.5822C13.0068 16.2345 13.0086 15.765 12.7595 15.4154L7.04844 7.3996C6.57679 6.73761 7.05004 5.81934 7.86287 5.81934H9.7928Z" fill="white"/>
</svg>
