<svg width="32" height="32" viewBox="0 0 32 32" fill="none" xmlns="http://www.w3.org/2000/svg">
<path d="M7.27674 7.31072C6.90064 6.6441 7.38229 5.81934 8.14768 5.81934H10.6553C11.0257 5.81934 11.3658 6.02406 11.5391 6.3514L15.854 14.5007C15.8826 14.5548 15.9388 14.5886 15.9999 14.5886C16.0611 14.5886 16.1173 14.5548 16.1459 14.5007L20.4608 6.3514C20.6341 6.02406 20.9741 5.81934 21.3445 5.81934H23.8522C24.6176 5.81934 25.0992 6.6441 24.7231 7.31072L18.2666 18.7544C18.182 18.9043 18.1376 19.0736 18.1376 19.2458V25.1815C18.1376 25.7337 17.6898 26.1815 17.1376 26.1815H14.8623C14.31 26.1815 13.8623 25.7337 13.8623 25.1815V19.2458C13.8623 19.0736 13.8179 18.9043 13.7333 18.7544L7.27674 7.31072Z" fill="white"/>
</svg>
