<svg width="16" height="16" viewBox="0 0 16 16" fill="none" xmlns="http://www.w3.org/2000/svg">
<g clip-path="url(#clip0_310_4574)">
<path d="M6.49197 1.90954C7.26132 0.935345 8.73868 0.935344 9.50803 1.90954V1.90954C9.92166 2.4333 10.5774 2.70493 11.2403 2.62705V2.62705C12.4731 2.48221 13.5178 3.52686 13.3729 4.75973V4.75973C13.2951 5.42257 13.5667 6.07834 14.0905 6.49197V6.49197C15.0647 7.26132 15.0647 8.73868 14.0905 9.50803V9.50803C13.5667 9.92166 13.2951 10.5774 13.3729 11.2403V11.2403C13.5178 12.4731 12.4731 13.5178 11.2403 13.3729V13.3729C10.5774 13.2951 9.92166 13.5667 9.50803 14.0905V14.0905C8.73868 15.0647 7.26132 15.0647 6.49197 14.0905V14.0905C6.07834 13.5667 5.42257 13.2951 4.75973 13.3729V13.3729C3.52686 13.5178 2.48221 12.4731 2.62705 11.2403V11.2403C2.70493 10.5774 2.4333 9.92166 1.90954 9.50803V9.50803C0.935344 8.73868 0.935345 7.26132 1.90954 6.49197V6.49197C2.4333 6.07834 2.70493 5.42257 2.62705 4.75973V4.75973C2.48221 3.52686 3.52686 2.48221 4.75973 2.62705V2.62705C5.42257 2.70493 6.07834 2.4333 6.49197 1.90954V1.90954Z" fill="white"/>
</g>
<defs>
<clipPath id="clip0_310_4574">
<rect width="16" height="16" fill="white"/>
</clipPath>
</defs>
</svg>
