<svg width="16" height="16" viewBox="0 0 16 16" fill="none" xmlns="http://www.w3.org/2000/svg">
<path d="M6.10121 2.86453C6.41661 1.98056 7.05731 1.20313 7.99586 1.20313C8.93765 1.20313 9.56887 1.98818 9.89167 2.87291C9.92126 2.95401 9.95469 3.00925 9.99239 3.02651C10.0483 3.05213 10.1455 3.02771 10.2655 2.97203C11.117 2.57672 12.1288 2.51691 12.7926 3.18076C13.4671 3.85523 13.3644 4.87017 12.9797 5.74301C12.942 5.82872 12.9268 5.89763 12.9441 5.94023C12.9648 5.99081 13.0419 6.03561 13.1538 6.07502C14.0352 6.38537 14.7961 7.04561 14.7961 7.98001C14.7961 8.93012 13.9979 9.55387 13.1114 9.89577C13.0377 9.9242 12.9876 9.95612 12.9713 9.9919C12.9464 10.0467 12.9698 10.1413 13.0236 10.2584C13.4177 11.1154 13.48 12.1306 12.813 12.7976C12.1399 13.4707 11.1213 13.3854 10.2525 12.9962C10.1532 12.9517 10.0731 12.9334 10.025 12.9542C9.98265 12.9725 9.94499 13.0345 9.91161 13.1253C9.58506 14.0133 8.93928 14.7956 7.99313 14.7956C7.05246 14.7956 6.39435 14.0258 6.0773 13.1401C6.03924 13.0338 5.99603 12.9608 5.94725 12.9408C5.90169 12.9221 5.82603 12.9407 5.73188 12.9842C4.87266 13.3816 3.8599 13.4708 3.1905 12.8014C2.52411 12.135 2.60045 11.1231 3.00123 10.2702C3.0502 10.1659 3.07155 10.082 3.05056 10.0325C3.03197 9.98869 2.96819 9.94975 2.87481 9.91527C1.98611 9.58715 1.20361 8.93864 1.20361 7.9913C1.20361 7.05055 1.97142 6.38952 2.85701 6.07211C2.96542 6.03326 3.03996 5.98923 3.06016 5.93966C3.0778 5.89635 3.06163 5.82581 3.0222 5.73807C2.63212 4.87002 2.53213 3.85576 3.20506 3.18283C3.8691 2.51879 4.88011 2.58317 5.73008 2.98245C5.84433 3.03612 5.93663 3.05982 5.99004 3.03624C6.03183 3.01779 6.06872 2.95558 6.10121 2.86453Z" fill="white"/>
</svg>
