<svg width="16" height="16" viewBox="0 0 16 16" fill="none" xmlns="http://www.w3.org/2000/svg">
<path d="M6.32748 1.24512L9.67226 1.24512C9.53093 2.32674 10.9141 2.89438 11.5933 2.04084L13.9584 4.40595C13.0964 5.07762 13.6691 6.45744 14.7541 6.32699V9.67177C13.6732 9.52822 13.1063 10.9124 13.9584 11.5928L11.5933 13.9579C10.9183 13.098 9.53654 13.6689 9.67226 14.7536H6.32748C6.46109 13.6677 5.07969 13.0954 4.40644 13.9579L2.04133 11.5928C2.90138 10.9177 2.33043 9.53519 1.24561 9.67177L1.24561 6.32699C2.3309 6.45699 2.90483 5.07611 2.04133 4.40595L4.40644 2.04084C5.08503 2.89556 6.46838 2.32733 6.32748 1.24512Z" fill="white"/>
</svg>
