<svg width="16" height="16" viewBox="0 0 16 16" fill="none" xmlns="http://www.w3.org/2000/svg">
<g clip-path="url(#clip0_299_2804)">
<path d="M0 -2.5L2 -4L4 -2.5L6 -4L8 -2.5L10 -4L12 -2.5L14 -4L16 -2.5V-1L14 -2.5L12 -1L10 -2.5L8 -1L6 -2.5L4 -1L2 -2.5L0 -1V-2.5Z" fill="white"/>
<path d="M0 1.5L2 0L4 1.5L6 0L8 1.5L10 0L12 1.5L14 0L16 1.5V3L14 1.5L12 3L10 1.5L8 3L6 1.5L4 3L2 1.5L0 3V1.5Z" fill="white"/>
<path d="M0 5.5L2 4L4 5.5L6 4L8 5.5L10 4L12 5.5L14 4L16 5.5V7L14 5.5L12 7L10 5.5L8 7L6 5.5L4 7L2 5.5L0 7V5.5Z" fill="white"/>
<path d="M0 9.5L2 8L4 9.5L6 8L8 9.5L10 8L12 9.5L14 8L16 9.5V11L14 9.5L12 11L10 9.5L8 11L6 9.5L4 11L2 9.5L0 11V9.5Z" fill="white"/>
<path d="M0 13.5L2 12L4 13.5L6 12L8 13.5L10 12L12 13.5L14 12L16 13.5V15L14 13.5L12 15L10 13.5L8 15L6 13.5L4 15L2 13.5L0 15V13.5Z" fill="white"/>
<path d="M0 17.5L2 16L4 17.5L6 16L8 17.5L10 16L12 17.5L14 16L16 17.5V19L14 17.5L12 19L10 17.5L8 19L6 17.5L4 19L2 17.5L0 19V17.5Z" fill="white"/>
</g>
<defs>
<clipPath id="clip0_299_2804">
<rect width="16" height="16" fill="white"/>
</clipPath>
</defs>
</svg>
