<svg width="16" height="16" viewBox="0 0 16 16" fill="none" xmlns="http://www.w3.org/2000/svg">
<g clip-path="url(#clip0_299_2511)">
<g clip-path="url(#clip1_299_2511)">
<path d="M0.500156 1.16828C0.869152 1.16828 1.16828 0.869152 1.16828 0.500156C1.16828 0.131161 0.869152 -0.167969 0.500156 -0.167969C0.131161 -0.167969 -0.167969 0.131161 -0.167969 0.500156C-0.167969 0.869152 0.131161 1.16828 0.500156 1.16828Z" fill="white"/>
<path d="M2.00016 1.16828C2.36915 1.16828 2.66828 0.869152 2.66828 0.500156C2.66828 0.131161 2.36915 -0.167969 2.00016 -0.167969C1.63116 -0.167969 1.33203 0.131161 1.33203 0.500156C1.33203 0.869152 1.63116 1.16828 2.00016 1.16828Z" fill="white"/>
<path d="M3.50016 1.16828C3.86915 1.16828 4.16828 0.869152 4.16828 0.500156C4.16828 0.131161 3.86915 -0.167969 3.50016 -0.167969C3.13116 -0.167969 2.83203 0.131161 2.83203 0.500156C2.83203 0.869152 3.13116 1.16828 3.50016 1.16828Z" fill="white"/>
<path d="M5.00016 1.16828C5.36915 1.16828 5.66828 0.869152 5.66828 0.500156C5.66828 0.131161 5.36915 -0.167969 5.00016 -0.167969C4.63116 -0.167969 4.33203 0.131161 4.33203 0.500156C4.33203 0.869152 4.63116 1.16828 5.00016 1.16828Z" fill="white"/>
<path d="M6.50016 1.16828C6.86915 1.16828 7.16828 0.869152 7.16828 0.500156C7.16828 0.131161 6.86915 -0.167969 6.50016 -0.167969C6.13116 -0.167969 5.83203 0.131161 5.83203 0.500156C5.83203 0.869152 6.13116 1.16828 6.50016 1.16828Z" fill="white"/>
<path d="M8.00016 1.16828C8.36915 1.16828 8.66828 0.869152 8.66828 0.500156C8.66828 0.131161 8.36915 -0.167969 8.00016 -0.167969C7.63116 -0.167969 7.33203 0.131161 7.33203 0.500156C7.33203 0.869152 7.63116 1.16828 8.00016 1.16828Z" fill="white"/>
<path d="M9.50016 1.16828C9.86915 1.16828 10.1683 0.869152 10.1683 0.500156C10.1683 0.131161 9.86915 -0.167969 9.50016 -0.167969C9.13116 -0.167969 8.83203 0.131161 8.83203 0.500156C8.83203 0.869152 9.13116 1.16828 9.50016 1.16828Z" fill="white"/>
<path d="M11.0002 1.16828C11.3692 1.16828 11.6683 0.869152 11.6683 0.500156C11.6683 0.131161 11.3692 -0.167969 11.0002 -0.167969C10.6312 -0.167969 10.332 0.131161 10.332 0.500156C10.332 0.869152 10.6312 1.16828 11.0002 1.16828Z" fill="white"/>
<path d="M12.5002 1.16828C12.8692 1.16828 13.1683 0.869152 13.1683 0.500156C13.1683 0.131161 12.8692 -0.167969 12.5002 -0.167969C12.1312 -0.167969 11.832 0.131161 11.832 0.500156C11.832 0.869152 12.1312 1.16828 12.5002 1.16828Z" fill="white"/>
<path d="M14.0002 1.16828C14.3692 1.16828 14.6683 0.869152 14.6683 0.500156C14.6683 0.131161 14.3692 -0.167969 14.0002 -0.167969C13.6312 -0.167969 13.332 0.131161 13.332 0.500156C13.332 0.869152 13.6312 1.16828 14.0002 1.16828Z" fill="white"/>
<path d="M15.5002 1.16828C15.8692 1.16828 16.1683 0.869152 16.1683 0.500156C16.1683 0.131161 15.8692 -0.167969 15.5002 -0.167969C15.1312 -0.167969 14.832 0.131161 14.832 0.500156C14.832 0.869152 15.1312 1.16828 15.5002 1.16828Z" fill="white"/>
<path d="M0.499785 2.6109C0.837024 2.6109 1.11041 2.33751 1.11041 2.00027C1.11041 1.66303 0.837024 1.38965 0.499785 1.38965C0.162546 1.38965 -0.11084 1.66303 -0.11084 2.00027C-0.11084 2.33751 0.162546 2.6109 0.499785 2.6109Z" fill="white"/>
<path d="M1.99979 2.6109C2.33702 2.6109 2.61041 2.33751 2.61041 2.00027C2.61041 1.66303 2.33702 1.38965 1.99979 1.38965C1.66255 1.38965 1.38916 1.66303 1.38916 2.00027C1.38916 2.33751 1.66255 2.6109 1.99979 2.6109Z" fill="white"/>
<path d="M3.49979 2.6109C3.83702 2.6109 4.11041 2.33751 4.11041 2.00027C4.11041 1.66303 3.83702 1.38965 3.49979 1.38965C3.16255 1.38965 2.88916 1.66303 2.88916 2.00027C2.88916 2.33751 3.16255 2.6109 3.49979 2.6109Z" fill="white"/>
<path d="M4.99978 2.6109C5.33702 2.6109 5.61041 2.33751 5.61041 2.00027C5.61041 1.66303 5.33702 1.38965 4.99978 1.38965C4.66255 1.38965 4.38916 1.66303 4.38916 2.00027C4.38916 2.33751 4.66255 2.6109 4.99978 2.6109Z" fill="white"/>
<path d="M6.49978 2.6109C6.83702 2.6109 7.11041 2.33751 7.11041 2.00027C7.11041 1.66303 6.83702 1.38965 6.49978 1.38965C6.16255 1.38965 5.88916 1.66303 5.88916 2.00027C5.88916 2.33751 6.16255 2.6109 6.49978 2.6109Z" fill="white"/>
<path d="M7.99978 2.6109C8.33702 2.6109 8.61041 2.33751 8.61041 2.00027C8.61041 1.66303 8.33702 1.38965 7.99978 1.38965C7.66255 1.38965 7.38916 1.66303 7.38916 2.00027C7.38916 2.33751 7.66255 2.6109 7.99978 2.6109Z" fill="white"/>
<path d="M9.49979 2.6109C9.83702 2.6109 10.1104 2.33751 10.1104 2.00027C10.1104 1.66303 9.83702 1.38965 9.49979 1.38965C9.16255 1.38965 8.88916 1.66303 8.88916 2.00027C8.88916 2.33751 9.16255 2.6109 9.49979 2.6109Z" fill="white"/>
<path d="M10.9998 2.6109C11.337 2.6109 11.6104 2.33751 11.6104 2.00027C11.6104 1.66303 11.337 1.38965 10.9998 1.38965C10.6625 1.38965 10.3892 1.66303 10.3892 2.00027C10.3892 2.33751 10.6625 2.6109 10.9998 2.6109Z" fill="white"/>
<path d="M12.4998 2.6109C12.837 2.6109 13.1104 2.33751 13.1104 2.00027C13.1104 1.66303 12.837 1.38965 12.4998 1.38965C12.1625 1.38965 11.8892 1.66303 11.8892 2.00027C11.8892 2.33751 12.1625 2.6109 12.4998 2.6109Z" fill="white"/>
<path d="M13.9998 2.6109C14.337 2.6109 14.6104 2.33751 14.6104 2.00027C14.6104 1.66303 14.337 1.38965 13.9998 1.38965C13.6625 1.38965 13.3892 1.66303 13.3892 2.00027C13.3892 2.33751 13.6625 2.6109 13.9998 2.6109Z" fill="white"/>
<path d="M15.4998 2.6109C15.837 2.6109 16.1104 2.33751 16.1104 2.00027C16.1104 1.66303 15.837 1.38965 15.4998 1.38965C15.1625 1.38965 14.8892 1.66303 14.8892 2.00027C14.8892 2.33751 15.1625 2.6109 15.4998 2.6109Z" fill="white"/>
<path d="M0.499902 4.05352C0.805385 4.05352 1.05303 3.80587 1.05303 3.50039C1.05303 3.19491 0.805385 2.94727 0.499902 2.94727C0.19442 2.94727 -0.0532227 3.19491 -0.0532227 3.50039C-0.0532227 3.80587 0.19442 4.05352 0.499902 4.05352Z" fill="white"/>
<path d="M1.9999 4.05352C2.30538 4.05352 2.55303 3.80587 2.55303 3.50039C2.55303 3.19491 2.30538 2.94727 1.9999 2.94727C1.69442 2.94727 1.44678 3.19491 1.44678 3.50039C1.44678 3.80587 1.69442 4.05352 1.9999 4.05352Z" fill="white"/>
<path d="M3.4999 4.05352C3.80538 4.05352 4.05303 3.80587 4.05303 3.50039C4.05303 3.19491 3.80538 2.94727 3.4999 2.94727C3.19442 2.94727 2.94678 3.19491 2.94678 3.50039C2.94678 3.80587 3.19442 4.05352 3.4999 4.05352Z" fill="white"/>
<path d="M4.9999 4.05352C5.30538 4.05352 5.55303 3.80587 5.55303 3.50039C5.55303 3.19491 5.30538 2.94727 4.9999 2.94727C4.69442 2.94727 4.44678 3.19491 4.44678 3.50039C4.44678 3.80587 4.69442 4.05352 4.9999 4.05352Z" fill="white"/>
<path d="M6.4999 4.05352C6.80538 4.05352 7.05303 3.80587 7.05303 3.50039C7.05303 3.19491 6.80538 2.94727 6.4999 2.94727C6.19442 2.94727 5.94678 3.19491 5.94678 3.50039C5.94678 3.80587 6.19442 4.05352 6.4999 4.05352Z" fill="white"/>
<path d="M7.9999 4.05352C8.30538 4.05352 8.55303 3.80587 8.55303 3.50039C8.55303 3.19491 8.30538 2.94727 7.9999 2.94727C7.69442 2.94727 7.44678 3.19491 7.44678 3.50039C7.44678 3.80587 7.69442 4.05352 7.9999 4.05352Z" fill="white"/>
<path d="M9.4999 4.05352C9.80539 4.05352 10.053 3.80587 10.053 3.50039C10.053 3.19491 9.80539 2.94727 9.4999 2.94727C9.19442 2.94727 8.94678 3.19491 8.94678 3.50039C8.94678 3.80587 9.19442 4.05352 9.4999 4.05352Z" fill="white"/>
<path d="M10.9999 4.05352C11.3054 4.05352 11.553 3.80587 11.553 3.50039C11.553 3.19491 11.3054 2.94727 10.9999 2.94727C10.6944 2.94727 10.4468 3.19491 10.4468 3.50039C10.4468 3.80587 10.6944 4.05352 10.9999 4.05352Z" fill="white"/>
<path d="M12.4999 4.05352C12.8054 4.05352 13.053 3.80587 13.053 3.50039C13.053 3.19491 12.8054 2.94727 12.4999 2.94727C12.1944 2.94727 11.9468 3.19491 11.9468 3.50039C11.9468 3.80587 12.1944 4.05352 12.4999 4.05352Z" fill="white"/>
<path d="M13.9999 4.05352C14.3054 4.05352 14.553 3.80587 14.553 3.50039C14.553 3.19491 14.3054 2.94727 13.9999 2.94727C13.6944 2.94727 13.4468 3.19491 13.4468 3.50039C13.4468 3.80587 13.6944 4.05352 13.9999 4.05352Z" fill="white"/>
<path d="M15.4999 4.05352C15.8054 4.05352 16.053 3.80587 16.053 3.50039C16.053 3.19491 15.8054 2.94727 15.4999 2.94727C15.1944 2.94727 14.9468 3.19491 14.9468 3.50039C14.9468 3.80587 15.1944 4.05352 15.4999 4.05352Z" fill="white"/>
<path d="M0.500156 5.49641C0.774228 5.49641 0.996406 5.27423 0.996406 5.00016C0.996406 4.72609 0.774228 4.50391 0.500156 4.50391C0.226085 4.50391 0.00390625 4.72609 0.00390625 5.00016C0.00390625 5.27423 0.226085 5.49641 0.500156 5.49641Z" fill="white"/>
<path d="M2.00016 5.49641C2.27423 5.49641 2.49641 5.27423 2.49641 5.00016C2.49641 4.72609 2.27423 4.50391 2.00016 4.50391C1.72609 4.50391 1.50391 4.72609 1.50391 5.00016C1.50391 5.27423 1.72609 5.49641 2.00016 5.49641Z" fill="white"/>
<path d="M3.50016 5.49641C3.77423 5.49641 3.99641 5.27423 3.99641 5.00016C3.99641 4.72609 3.77423 4.50391 3.50016 4.50391C3.22608 4.50391 3.00391 4.72609 3.00391 5.00016C3.00391 5.27423 3.22608 5.49641 3.50016 5.49641Z" fill="white"/>
<path d="M5.00016 5.49641C5.27423 5.49641 5.49641 5.27423 5.49641 5.00016C5.49641 4.72609 5.27423 4.50391 5.00016 4.50391C4.72609 4.50391 4.50391 4.72609 4.50391 5.00016C4.50391 5.27423 4.72609 5.49641 5.00016 5.49641Z" fill="white"/>
<path d="M6.50016 5.49641C6.77423 5.49641 6.99641 5.27423 6.99641 5.00016C6.99641 4.72609 6.77423 4.50391 6.50016 4.50391C6.22609 4.50391 6.00391 4.72609 6.00391 5.00016C6.00391 5.27423 6.22609 5.49641 6.50016 5.49641Z" fill="white"/>
<path d="M8.00016 5.49641C8.27423 5.49641 8.49641 5.27423 8.49641 5.00016C8.49641 4.72609 8.27423 4.50391 8.00016 4.50391C7.72609 4.50391 7.50391 4.72609 7.50391 5.00016C7.50391 5.27423 7.72609 5.49641 8.00016 5.49641Z" fill="white"/>
<path d="M9.50016 5.49641C9.77423 5.49641 9.99641 5.27423 9.99641 5.00016C9.99641 4.72609 9.77423 4.50391 9.50016 4.50391C9.22609 4.50391 9.00391 4.72609 9.00391 5.00016C9.00391 5.27423 9.22609 5.49641 9.50016 5.49641Z" fill="white"/>
<path d="M11.0002 5.49641C11.2742 5.49641 11.4964 5.27423 11.4964 5.00016C11.4964 4.72609 11.2742 4.50391 11.0002 4.50391C10.7261 4.50391 10.5039 4.72609 10.5039 5.00016C10.5039 5.27423 10.7261 5.49641 11.0002 5.49641Z" fill="white"/>
<path d="M12.5002 5.49641C12.7742 5.49641 12.9964 5.27423 12.9964 5.00016C12.9964 4.72609 12.7742 4.50391 12.5002 4.50391C12.2261 4.50391 12.0039 4.72609 12.0039 5.00016C12.0039 5.27423 12.2261 5.49641 12.5002 5.49641Z" fill="white"/>
<path d="M14.0002 5.49641C14.2742 5.49641 14.4964 5.27423 14.4964 5.00016C14.4964 4.72609 14.2742 4.50391 14.0002 4.50391C13.7261 4.50391 13.5039 4.72609 13.5039 5.00016C13.5039 5.27423 13.7261 5.49641 14.0002 5.49641Z" fill="white"/>
<path d="M15.5002 5.49641C15.7742 5.49641 15.9964 5.27423 15.9964 5.00016C15.9964 4.72609 15.7742 4.50391 15.5002 4.50391C15.2261 4.50391 15.0039 4.72609 15.0039 5.00016C15.0039 5.27423 15.2261 5.49641 15.5002 5.49641Z" fill="white"/>
<path d="M0.499785 6.93902C0.7421 6.93902 0.938535 6.74259 0.938535 6.50027C0.938535 6.25796 0.7421 6.06152 0.499785 6.06152C0.25747 6.06152 0.0610352 6.25796 0.0610352 6.50027C0.0610352 6.74259 0.25747 6.93902 0.499785 6.93902Z" fill="white"/>
<path d="M1.99979 6.93902C2.2421 6.93902 2.43854 6.74259 2.43854 6.50027C2.43854 6.25796 2.2421 6.06152 1.99979 6.06152C1.75747 6.06152 1.56104 6.25796 1.56104 6.50027C1.56104 6.74259 1.75747 6.93902 1.99979 6.93902Z" fill="white"/>
<path d="M3.49979 6.93902C3.7421 6.93902 3.93854 6.74259 3.93854 6.50027C3.93854 6.25796 3.7421 6.06152 3.49979 6.06152C3.25747 6.06152 3.06104 6.25796 3.06104 6.50027C3.06104 6.74259 3.25747 6.93902 3.49979 6.93902Z" fill="white"/>
<path d="M4.99979 6.93902C5.2421 6.93902 5.43853 6.74259 5.43853 6.50027C5.43853 6.25796 5.2421 6.06152 4.99979 6.06152C4.75747 6.06152 4.56104 6.25796 4.56104 6.50027C4.56104 6.74259 4.75747 6.93902 4.99979 6.93902Z" fill="white"/>
<path d="M6.49979 6.93902C6.7421 6.93902 6.93853 6.74259 6.93853 6.50027C6.93853 6.25796 6.7421 6.06152 6.49979 6.06152C6.25747 6.06152 6.06104 6.25796 6.06104 6.50027C6.06104 6.74259 6.25747 6.93902 6.49979 6.93902Z" fill="white"/>
<path d="M7.99978 6.93902C8.2421 6.93902 8.43854 6.74259 8.43854 6.50027C8.43854 6.25796 8.2421 6.06152 7.99978 6.06152C7.75747 6.06152 7.56104 6.25796 7.56104 6.50027C7.56104 6.74259 7.75747 6.93902 7.99978 6.93902Z" fill="white"/>
<path d="M9.49979 6.93902C9.7421 6.93902 9.93854 6.74259 9.93854 6.50027C9.93854 6.25796 9.7421 6.06152 9.49979 6.06152C9.25747 6.06152 9.06104 6.25796 9.06104 6.50027C9.06104 6.74259 9.25747 6.93902 9.49979 6.93902Z" fill="white"/>
<path d="M10.9998 6.93902C11.2421 6.93902 11.4385 6.74259 11.4385 6.50027C11.4385 6.25796 11.2421 6.06152 10.9998 6.06152C10.7575 6.06152 10.561 6.25796 10.561 6.50027C10.561 6.74259 10.7575 6.93902 10.9998 6.93902Z" fill="white"/>
<path d="M12.4998 6.93902C12.7421 6.93902 12.9385 6.74259 12.9385 6.50027C12.9385 6.25796 12.7421 6.06152 12.4998 6.06152C12.2575 6.06152 12.061 6.25796 12.061 6.50027C12.061 6.74259 12.2575 6.93902 12.4998 6.93902Z" fill="white"/>
<path d="M13.9998 6.93902C14.2421 6.93902 14.4385 6.74259 14.4385 6.50027C14.4385 6.25796 14.2421 6.06152 13.9998 6.06152C13.7575 6.06152 13.561 6.25796 13.561 6.50027C13.561 6.74259 13.7575 6.93902 13.9998 6.93902Z" fill="white"/>
<path d="M15.4998 6.93902C15.7421 6.93902 15.9385 6.74259 15.9385 6.50027C15.9385 6.25796 15.7421 6.06152 15.4998 6.06152C15.2575 6.06152 15.061 6.25796 15.061 6.50027C15.061 6.74259 15.2575 6.93902 15.4998 6.93902Z" fill="white"/>
<path d="M0.499902 8.38164C0.710461 8.38164 0.881152 8.21095 0.881152 8.00039C0.881152 7.78983 0.710461 7.61914 0.499902 7.61914C0.289344 7.61914 0.118652 7.78983 0.118652 8.00039C0.118652 8.21095 0.289344 8.38164 0.499902 8.38164Z" fill="white"/>
<path d="M1.9999 8.38164C2.21046 8.38164 2.38115 8.21095 2.38115 8.00039C2.38115 7.78983 2.21046 7.61914 1.9999 7.61914C1.78934 7.61914 1.61865 7.78983 1.61865 8.00039C1.61865 8.21095 1.78934 8.38164 1.9999 8.38164Z" fill="white"/>
<path d="M3.4999 8.38164C3.71046 8.38164 3.88115 8.21095 3.88115 8.00039C3.88115 7.78983 3.71046 7.61914 3.4999 7.61914C3.28934 7.61914 3.11865 7.78983 3.11865 8.00039C3.11865 8.21095 3.28934 8.38164 3.4999 8.38164Z" fill="white"/>
<path d="M4.9999 8.38164C5.21046 8.38164 5.38115 8.21095 5.38115 8.00039C5.38115 7.78983 5.21046 7.61914 4.9999 7.61914C4.78934 7.61914 4.61865 7.78983 4.61865 8.00039C4.61865 8.21095 4.78934 8.38164 4.9999 8.38164Z" fill="white"/>
<path d="M6.4999 8.38164C6.71046 8.38164 6.88115 8.21095 6.88115 8.00039C6.88115 7.78983 6.71046 7.61914 6.4999 7.61914C6.28934 7.61914 6.11865 7.78983 6.11865 8.00039C6.11865 8.21095 6.28934 8.38164 6.4999 8.38164Z" fill="white"/>
<path d="M7.9999 8.38164C8.21046 8.38164 8.38115 8.21095 8.38115 8.00039C8.38115 7.78983 8.21046 7.61914 7.9999 7.61914C7.78934 7.61914 7.61865 7.78983 7.61865 8.00039C7.61865 8.21095 7.78934 8.38164 7.9999 8.38164Z" fill="white"/>
<path d="M9.4999 8.38164C9.71046 8.38164 9.88115 8.21095 9.88115 8.00039C9.88115 7.78983 9.71046 7.61914 9.4999 7.61914C9.28934 7.61914 9.11865 7.78983 9.11865 8.00039C9.11865 8.21095 9.28934 8.38164 9.4999 8.38164Z" fill="white"/>
<path d="M10.9999 8.38164C11.2105 8.38164 11.3812 8.21095 11.3812 8.00039C11.3812 7.78983 11.2105 7.61914 10.9999 7.61914C10.7893 7.61914 10.6187 7.78983 10.6187 8.00039C10.6187 8.21095 10.7893 8.38164 10.9999 8.38164Z" fill="white"/>
<path d="M12.4999 8.38164C12.7105 8.38164 12.8812 8.21095 12.8812 8.00039C12.8812 7.78983 12.7105 7.61914 12.4999 7.61914C12.2893 7.61914 12.1187 7.78983 12.1187 8.00039C12.1187 8.21095 12.2893 8.38164 12.4999 8.38164Z" fill="white"/>
<path d="M13.9999 8.38164C14.2105 8.38164 14.3812 8.21095 14.3812 8.00039C14.3812 7.78983 14.2105 7.61914 13.9999 7.61914C13.7893 7.61914 13.6187 7.78983 13.6187 8.00039C13.6187 8.21095 13.7893 8.38164 13.9999 8.38164Z" fill="white"/>
<path d="M15.4999 8.38164C15.7105 8.38164 15.8812 8.21095 15.8812 8.00039C15.8812 7.78983 15.7105 7.61914 15.4999 7.61914C15.2893 7.61914 15.1187 7.78983 15.1187 8.00039C15.1187 8.21095 15.2893 8.38164 15.4999 8.38164Z" fill="white"/>
<path d="M0.50002 9.82328C0.678822 9.82328 0.82377 9.67833 0.82377 9.49953C0.82377 9.32073 0.678822 9.17578 0.50002 9.17578C0.321217 9.17578 0.17627 9.32073 0.17627 9.49953C0.17627 9.67833 0.321217 9.82328 0.50002 9.82328Z" fill="white"/>
<path d="M2.00002 9.82328C2.17882 9.82328 2.32377 9.67833 2.32377 9.49953C2.32377 9.32073 2.17882 9.17578 2.00002 9.17578C1.82122 9.17578 1.67627 9.32073 1.67627 9.49953C1.67627 9.67833 1.82122 9.82328 2.00002 9.82328Z" fill="white"/>
<path d="M3.50002 9.82328C3.67882 9.82328 3.82377 9.67833 3.82377 9.49953C3.82377 9.32073 3.67882 9.17578 3.50002 9.17578C3.32122 9.17578 3.17627 9.32073 3.17627 9.49953C3.17627 9.67833 3.32122 9.82328 3.50002 9.82328Z" fill="white"/>
<path d="M5.00002 9.82328C5.17882 9.82328 5.32377 9.67833 5.32377 9.49953C5.32377 9.32073 5.17882 9.17578 5.00002 9.17578C4.82122 9.17578 4.67627 9.32073 4.67627 9.49953C4.67627 9.67833 4.82122 9.82328 5.00002 9.82328Z" fill="white"/>
<path d="M6.50002 9.82328C6.67882 9.82328 6.82377 9.67833 6.82377 9.49953C6.82377 9.32073 6.67882 9.17578 6.50002 9.17578C6.32122 9.17578 6.17627 9.32073 6.17627 9.49953C6.17627 9.67833 6.32122 9.82328 6.50002 9.82328Z" fill="white"/>
<path d="M8.00002 9.82328C8.17882 9.82328 8.32377 9.67833 8.32377 9.49953C8.32377 9.32073 8.17882 9.17578 8.00002 9.17578C7.82122 9.17578 7.67627 9.32073 7.67627 9.49953C7.67627 9.67833 7.82122 9.82328 8.00002 9.82328Z" fill="white"/>
<path d="M9.50002 9.82328C9.67882 9.82328 9.82377 9.67833 9.82377 9.49953C9.82377 9.32073 9.67882 9.17578 9.50002 9.17578C9.32122 9.17578 9.17627 9.32073 9.17627 9.49953C9.17627 9.67833 9.32122 9.82328 9.50002 9.82328Z" fill="white"/>
<path d="M11 9.82328C11.1788 9.82328 11.3238 9.67833 11.3238 9.49953C11.3238 9.32073 11.1788 9.17578 11 9.17578C10.8212 9.17578 10.6763 9.32073 10.6763 9.49953C10.6763 9.67833 10.8212 9.82328 11 9.82328Z" fill="white"/>
<path d="M12.5 9.82328C12.6788 9.82328 12.8238 9.67833 12.8238 9.49953C12.8238 9.32073 12.6788 9.17578 12.5 9.17578C12.3212 9.17578 12.1763 9.32073 12.1763 9.49953C12.1763 9.67833 12.3212 9.82328 12.5 9.82328Z" fill="white"/>
<path d="M14 9.82328C14.1788 9.82328 14.3238 9.67833 14.3238 9.49953C14.3238 9.32073 14.1788 9.17578 14 9.17578C13.8212 9.17578 13.6763 9.32073 13.6763 9.49953C13.6763 9.67833 13.8212 9.82328 14 9.82328Z" fill="white"/>
<path d="M15.5 9.82328C15.6788 9.82328 15.8238 9.67833 15.8238 9.49953C15.8238 9.32073 15.6788 9.17578 15.5 9.17578C15.3212 9.17578 15.1763 9.32073 15.1763 9.49953C15.1763 9.67833 15.3212 9.82328 15.5 9.82328Z" fill="white"/>
<path d="M0.500137 11.2659C0.647183 11.2659 0.766387 11.1467 0.766387 10.9996C0.766387 10.8526 0.647183 10.7334 0.500137 10.7334C0.353091 10.7334 0.233887 10.8526 0.233887 10.9996C0.233887 11.1467 0.353091 11.2659 0.500137 11.2659Z" fill="white"/>
<path d="M2.00014 11.2659C2.14718 11.2659 2.26639 11.1467 2.26639 10.9996C2.26639 10.8526 2.14718 10.7334 2.00014 10.7334C1.85309 10.7334 1.73389 10.8526 1.73389 10.9996C1.73389 11.1467 1.85309 11.2659 2.00014 11.2659Z" fill="white"/>
<path d="M3.50014 11.2659C3.64718 11.2659 3.76639 11.1467 3.76639 10.9996C3.76639 10.8526 3.64718 10.7334 3.50014 10.7334C3.35309 10.7334 3.23389 10.8526 3.23389 10.9996C3.23389 11.1467 3.35309 11.2659 3.50014 11.2659Z" fill="white"/>
<path d="M5.00014 11.2659C5.14718 11.2659 5.26639 11.1467 5.26639 10.9996C5.26639 10.8526 5.14718 10.7334 5.00014 10.7334C4.85309 10.7334 4.73389 10.8526 4.73389 10.9996C4.73389 11.1467 4.85309 11.2659 5.00014 11.2659Z" fill="white"/>
<path d="M6.50014 11.2659C6.64718 11.2659 6.76639 11.1467 6.76639 10.9996C6.76639 10.8526 6.64718 10.7334 6.50014 10.7334C6.35309 10.7334 6.23389 10.8526 6.23389 10.9996C6.23389 11.1467 6.35309 11.2659 6.50014 11.2659Z" fill="white"/>
<path d="M8.00014 11.2659C8.14718 11.2659 8.26639 11.1467 8.26639 10.9996C8.26639 10.8526 8.14718 10.7334 8.00014 10.7334C7.85309 10.7334 7.73389 10.8526 7.73389 10.9996C7.73389 11.1467 7.85309 11.2659 8.00014 11.2659Z" fill="white"/>
<path d="M9.50014 11.2659C9.64718 11.2659 9.76639 11.1467 9.76639 10.9996C9.76639 10.8526 9.64718 10.7334 9.50014 10.7334C9.35309 10.7334 9.23389 10.8526 9.23389 10.9996C9.23389 11.1467 9.35309 11.2659 9.50014 11.2659Z" fill="white"/>
<path d="M11.0001 11.2659C11.1472 11.2659 11.2664 11.1467 11.2664 10.9996C11.2664 10.8526 11.1472 10.7334 11.0001 10.7334C10.8531 10.7334 10.7339 10.8526 10.7339 10.9996C10.7339 11.1467 10.8531 11.2659 11.0001 11.2659Z" fill="white"/>
<path d="M12.5001 11.2659C12.6472 11.2659 12.7664 11.1467 12.7664 10.9996C12.7664 10.8526 12.6472 10.7334 12.5001 10.7334C12.3531 10.7334 12.2339 10.8526 12.2339 10.9996C12.2339 11.1467 12.3531 11.2659 12.5001 11.2659Z" fill="white"/>
<path d="M14.0001 11.2659C14.1472 11.2659 14.2664 11.1467 14.2664 10.9996C14.2664 10.8526 14.1472 10.7334 14.0001 10.7334C13.8531 10.7334 13.7339 10.8526 13.7339 10.9996C13.7339 11.1467 13.8531 11.2659 14.0001 11.2659Z" fill="white"/>
<path d="M15.5001 11.2659C15.6472 11.2659 15.7664 11.1467 15.7664 10.9996C15.7664 10.8526 15.6472 10.7334 15.5001 10.7334C15.3531 10.7334 15.2339 10.8526 15.2339 10.9996C15.2339 11.1467 15.3531 11.2659 15.5001 11.2659Z" fill="white"/>
<path d="M0.499766 12.7085C0.615055 12.7085 0.708516 12.6151 0.708516 12.4998C0.708516 12.3845 0.615055 12.291 0.499766 12.291C0.384476 12.291 0.291016 12.3845 0.291016 12.4998C0.291016 12.6151 0.384476 12.7085 0.499766 12.7085Z" fill="white"/>
<path d="M1.99977 12.7085C2.11506 12.7085 2.20852 12.6151 2.20852 12.4998C2.20852 12.3845 2.11506 12.291 1.99977 12.291C1.88448 12.291 1.79102 12.3845 1.79102 12.4998C1.79102 12.6151 1.88448 12.7085 1.99977 12.7085Z" fill="white"/>
<path d="M3.49977 12.7085C3.61506 12.7085 3.70852 12.6151 3.70852 12.4998C3.70852 12.3845 3.61506 12.291 3.49977 12.291C3.38448 12.291 3.29102 12.3845 3.29102 12.4998C3.29102 12.6151 3.38448 12.7085 3.49977 12.7085Z" fill="white"/>
<path d="M4.99977 12.7085C5.11505 12.7085 5.20852 12.6151 5.20852 12.4998C5.20852 12.3845 5.11505 12.291 4.99977 12.291C4.88448 12.291 4.79102 12.3845 4.79102 12.4998C4.79102 12.6151 4.88448 12.7085 4.99977 12.7085Z" fill="white"/>
<path d="M6.49977 12.7085C6.61505 12.7085 6.70852 12.6151 6.70852 12.4998C6.70852 12.3845 6.61505 12.291 6.49977 12.291C6.38448 12.291 6.29102 12.3845 6.29102 12.4998C6.29102 12.6151 6.38448 12.7085 6.49977 12.7085Z" fill="white"/>
<path d="M7.99977 12.7085C8.11505 12.7085 8.20852 12.6151 8.20852 12.4998C8.20852 12.3845 8.11505 12.291 7.99977 12.291C7.88448 12.291 7.79102 12.3845 7.79102 12.4998C7.79102 12.6151 7.88448 12.7085 7.99977 12.7085Z" fill="white"/>
<path d="M9.49977 12.7085C9.61505 12.7085 9.70852 12.6151 9.70852 12.4998C9.70852 12.3845 9.61505 12.291 9.49977 12.291C9.38448 12.291 9.29102 12.3845 9.29102 12.4998C9.29102 12.6151 9.38448 12.7085 9.49977 12.7085Z" fill="white"/>
<path d="M10.9998 12.7085C11.1151 12.7085 11.2085 12.6151 11.2085 12.4998C11.2085 12.3845 11.1151 12.291 10.9998 12.291C10.8845 12.291 10.791 12.3845 10.791 12.4998C10.791 12.6151 10.8845 12.7085 10.9998 12.7085Z" fill="white"/>
<path d="M12.4998 12.7085C12.6151 12.7085 12.7085 12.6151 12.7085 12.4998C12.7085 12.3845 12.6151 12.291 12.4998 12.291C12.3845 12.291 12.291 12.3845 12.291 12.4998C12.291 12.6151 12.3845 12.7085 12.4998 12.7085Z" fill="white"/>
<path d="M13.9998 12.7085C14.1151 12.7085 14.2085 12.6151 14.2085 12.4998C14.2085 12.3845 14.1151 12.291 13.9998 12.291C13.8845 12.291 13.791 12.3845 13.791 12.4998C13.791 12.6151 13.8845 12.7085 13.9998 12.7085Z" fill="white"/>
<path d="M15.4998 12.7085C15.6151 12.7085 15.7085 12.6151 15.7085 12.4998C15.7085 12.3845 15.6151 12.291 15.4998 12.291C15.3845 12.291 15.291 12.3845 15.291 12.4998C15.291 12.6151 15.3845 12.7085 15.4998 12.7085Z" fill="white"/>
<path d="M0.499883 14.1511C0.583416 14.1511 0.651133 14.0834 0.651133 13.9999C0.651133 13.9163 0.583416 13.8486 0.499883 13.8486C0.41635 13.8486 0.348633 13.9163 0.348633 13.9999C0.348633 14.0834 0.41635 14.1511 0.499883 14.1511Z" fill="white"/>
<path d="M1.99988 14.1511C2.08342 14.1511 2.15113 14.0834 2.15113 13.9999C2.15113 13.9163 2.08342 13.8486 1.99988 13.8486C1.91635 13.8486 1.84863 13.9163 1.84863 13.9999C1.84863 14.0834 1.91635 14.1511 1.99988 14.1511Z" fill="white"/>
<path d="M3.49988 14.1511C3.58342 14.1511 3.65113 14.0834 3.65113 13.9999C3.65113 13.9163 3.58342 13.8486 3.49988 13.8486C3.41635 13.8486 3.34863 13.9163 3.34863 13.9999C3.34863 14.0834 3.41635 14.1511 3.49988 14.1511Z" fill="white"/>
<path d="M4.99988 14.1511C5.08342 14.1511 5.15113 14.0834 5.15113 13.9999C5.15113 13.9163 5.08342 13.8486 4.99988 13.8486C4.91635 13.8486 4.84863 13.9163 4.84863 13.9999C4.84863 14.0834 4.91635 14.1511 4.99988 14.1511Z" fill="white"/>
<path d="M6.49988 14.1511C6.58342 14.1511 6.65113 14.0834 6.65113 13.9999C6.65113 13.9163 6.58342 13.8486 6.49988 13.8486C6.41635 13.8486 6.34863 13.9163 6.34863 13.9999C6.34863 14.0834 6.41635 14.1511 6.49988 14.1511Z" fill="white"/>
<path d="M7.99988 14.1511C8.08342 14.1511 8.15113 14.0834 8.15113 13.9999C8.15113 13.9163 8.08342 13.8486 7.99988 13.8486C7.91635 13.8486 7.84863 13.9163 7.84863 13.9999C7.84863 14.0834 7.91635 14.1511 7.99988 14.1511Z" fill="white"/>
<path d="M9.49988 14.1511C9.58342 14.1511 9.65113 14.0834 9.65113 13.9999C9.65113 13.9163 9.58342 13.8486 9.49988 13.8486C9.41635 13.8486 9.34863 13.9163 9.34863 13.9999C9.34863 14.0834 9.41635 14.1511 9.49988 14.1511Z" fill="white"/>
<path d="M10.9999 14.1511C11.0834 14.1511 11.1511 14.0834 11.1511 13.9999C11.1511 13.9163 11.0834 13.8486 10.9999 13.8486C10.9163 13.8486 10.8486 13.9163 10.8486 13.9999C10.8486 14.0834 10.9163 14.1511 10.9999 14.1511Z" fill="white"/>
<path d="M12.4999 14.1511C12.5834 14.1511 12.6511 14.0834 12.6511 13.9999C12.6511 13.9163 12.5834 13.8486 12.4999 13.8486C12.4163 13.8486 12.3486 13.9163 12.3486 13.9999C12.3486 14.0834 12.4163 14.1511 12.4999 14.1511Z" fill="white"/>
<path d="M13.9999 14.1511C14.0834 14.1511 14.1511 14.0834 14.1511 13.9999C14.1511 13.9163 14.0834 13.8486 13.9999 13.8486C13.9163 13.8486 13.8486 13.9163 13.8486 13.9999C13.8486 14.0834 13.9163 14.1511 13.9999 14.1511Z" fill="white"/>
<path d="M15.4999 14.1511C15.5834 14.1511 15.6511 14.0834 15.6511 13.9999C15.6511 13.9163 15.5834 13.8486 15.4999 13.8486C15.4163 13.8486 15.3486 13.9163 15.3486 13.9999C15.3486 14.0834 15.4163 14.1511 15.4999 14.1511Z" fill="white"/>
<path d="M0.5 15.5938C0.551777 15.5938 0.59375 15.5518 0.59375 15.5C0.59375 15.4482 0.551777 15.4062 0.5 15.4062C0.448223 15.4062 0.40625 15.4482 0.40625 15.5C0.40625 15.5518 0.448223 15.5938 0.5 15.5938Z" fill="white"/>
<path d="M2 15.5938C2.05178 15.5938 2.09375 15.5518 2.09375 15.5C2.09375 15.4482 2.05178 15.4062 2 15.4062C1.94822 15.4062 1.90625 15.4482 1.90625 15.5C1.90625 15.5518 1.94822 15.5938 2 15.5938Z" fill="white"/>
<path d="M3.5 15.5938C3.55178 15.5938 3.59375 15.5518 3.59375 15.5C3.59375 15.4482 3.55178 15.4062 3.5 15.4062C3.44822 15.4062 3.40625 15.4482 3.40625 15.5C3.40625 15.5518 3.44822 15.5938 3.5 15.5938Z" fill="white"/>
<path d="M5 15.5938C5.05178 15.5938 5.09375 15.5518 5.09375 15.5C5.09375 15.4482 5.05178 15.4062 5 15.4062C4.94822 15.4062 4.90625 15.4482 4.90625 15.5C4.90625 15.5518 4.94822 15.5938 5 15.5938Z" fill="white"/>
<path d="M6.5 15.5938C6.55178 15.5938 6.59375 15.5518 6.59375 15.5C6.59375 15.4482 6.55178 15.4062 6.5 15.4062C6.44822 15.4062 6.40625 15.4482 6.40625 15.5C6.40625 15.5518 6.44822 15.5938 6.5 15.5938Z" fill="white"/>
<path d="M8 15.5938C8.05178 15.5938 8.09375 15.5518 8.09375 15.5C8.09375 15.4482 8.05178 15.4062 8 15.4062C7.94822 15.4062 7.90625 15.4482 7.90625 15.5C7.90625 15.5518 7.94822 15.5938 8 15.5938Z" fill="white"/>
<path d="M9.5 15.5938C9.55178 15.5938 9.59375 15.5518 9.59375 15.5C9.59375 15.4482 9.55178 15.4062 9.5 15.4062C9.44822 15.4062 9.40625 15.4482 9.40625 15.5C9.40625 15.5518 9.44822 15.5938 9.5 15.5938Z" fill="white"/>
<path d="M11 15.5938C11.0518 15.5938 11.0938 15.5518 11.0938 15.5C11.0938 15.4482 11.0518 15.4062 11 15.4062C10.9482 15.4062 10.9062 15.4482 10.9062 15.5C10.9062 15.5518 10.9482 15.5938 11 15.5938Z" fill="white"/>
<path d="M12.5 15.5938C12.5518 15.5938 12.5938 15.5518 12.5938 15.5C12.5938 15.4482 12.5518 15.4062 12.5 15.4062C12.4482 15.4062 12.4062 15.4482 12.4062 15.5C12.4062 15.5518 12.4482 15.5938 12.5 15.5938Z" fill="white"/>
<path d="M14 15.5938C14.0518 15.5938 14.0938 15.5518 14.0938 15.5C14.0938 15.4482 14.0518 15.4062 14 15.4062C13.9482 15.4062 13.9062 15.4482 13.9062 15.5C13.9062 15.5518 13.9482 15.5938 14 15.5938Z" fill="white"/>
<path d="M15.5 15.5938C15.5518 15.5938 15.5938 15.5518 15.5938 15.5C15.5938 15.4482 15.5518 15.4062 15.5 15.4062C15.4482 15.4062 15.4062 15.4482 15.4062 15.5C15.4062 15.5518 15.4482 15.5938 15.5 15.5938Z" fill="white"/>
</g>
</g>
<defs>
<clipPath id="clip0_299_2511">
<rect width="16" height="16" fill="white"/>
</clipPath>
<clipPath id="clip1_299_2511">
<rect width="16" height="16" fill="white"/>
</clipPath>
</defs>
</svg>
