<svg width="29" height="31" viewBox="0 0 29 31" fill="none" xmlns="http://www.w3.org/2000/svg">
<path d="M26.7332 26.7454C27.7441 26.746 28.5634 27.5687 28.5634 28.5797C28.5629 29.5902 27.7438 30.4093 26.7332 30.4099H1.83021C0.819656 30.4093 0.000549735 29.5902 0 28.5797C4.4193e-08 27.5687 0.819317 26.746 1.83021 26.7454H26.7332Z" fill="white"/>
<path d="M19.8679 20.1363C20.8793 20.1363 21.6981 20.9593 21.6981 21.9706C21.6976 22.9815 20.8789 23.8008 19.8679 23.8008H8.69551C7.6845 23.8008 6.86179 22.9815 6.86124 21.9706C6.86124 20.9593 7.68416 20.1363 8.69551 20.1363H19.8679Z" fill="white"/>
<path d="M14.2797 0C15.291 0 16.114 0.81885 16.114 1.83021V12.543L22.0886 7.0646C22.8337 6.3814 23.992 6.43341 24.6753 7.17848C25.3583 7.92367 25.3104 9.08201 24.5654 9.76517L16.7525 16.9233C15.3539 18.2024 13.2097 18.2022 11.8109 16.9233L3.99798 9.76517C3.253 9.08194 3.20511 7.92373 3.88817 7.17848C4.57137 6.4334 5.72957 6.38156 6.47486 7.0646L12.4495 12.5389V1.83021C12.4495 0.819189 13.2688 0.000549887 14.2797 0Z" fill="white"/>
</svg>
