<svg width="30" height="31" viewBox="0 0 30 31" fill="none" xmlns="http://www.w3.org/2000/svg">
<path d="M9.47217 11.4641C9.47217 10.594 10.1775 9.88867 11.0476 9.88867H18.6426C19.5127 9.88867 20.2181 10.594 20.2181 11.4641V19.0513C20.2181 19.9214 19.5127 20.6267 18.6426 20.6267H11.0476C10.1775 20.6267 9.47217 19.9214 9.47217 19.0513V11.4641Z" fill="#D9D9D9" fill-opacity="0.5"/>
<path d="M18.6808 18.6651V21.8741H3.20904V18.6651H18.6808ZM18.6808 3.20904H3.20904V21.8741L2.87999 21.8553C1.36993 21.7015 0.168713 20.5013 0.0156691 18.991L0 18.6651V3.20904C2.42049e-07 1.5478 1.26222 0.180394 2.87999 0.0156691L3.20904 0H18.6808L19.0067 0.0156691C20.6254 0.179515 21.8898 1.54714 21.8898 3.20904V18.6619L21.871 18.991C21.7178 20.5018 20.5176 21.7023 19.0067 21.8553L18.6808 21.8741V3.20904Z" fill="white"/>
<path d="M26.8004 27.2032V30.4122H11.3287V27.2032H26.8004ZM26.8004 11.7471H11.3287V30.4122L10.9996 30.3934C9.48956 30.2396 8.28834 29.0394 8.1353 27.5291L8.11963 27.2032V11.7471C8.11963 10.0859 9.38185 8.71848 10.9996 8.55376L11.3287 8.53809H26.8004L27.1263 8.55376C28.745 8.7176 30.0094 10.0852 30.0094 11.7471V27.2L29.9906 27.5291C29.8374 29.0399 28.6372 30.2404 27.1263 30.3934L26.8004 30.4122V11.7471Z" fill="white"/>
</svg>
