<svg width="31" height="31" viewBox="0 0 31 31" fill="none" xmlns="http://www.w3.org/2000/svg">
<path d="M6.74159 28.3227C6.18827 28.3227 5.65776 28.103 5.2665 27.7117C4.87524 27.3204 4.65527 26.7897 4.65527 26.2363L4.65699 15.1352C4.65683 14.8611 4.71086 14.5898 4.81565 14.3366C4.92044 14.0834 5.07394 13.8533 5.2677 13.6596C5.46147 13.4658 5.6917 13.3122 5.94489 13.2074C6.19808 13.1026 6.46928 13.0487 6.74331 13.0488C6.88732 13.0488 7.00404 12.9321 7.00398 12.788L7.00238 9.15461C7.00238 7.28713 7.74426 5.49617 9.06476 4.17566C10.3853 2.85516 12.1762 2.11328 14.0437 2.11328H16.5212C18.354 2.11349 20.1117 2.84171 21.4077 4.13771C22.7037 5.43372 23.4319 7.19138 23.4321 9.02421L23.4337 12.788C23.4338 12.9321 23.5506 13.0488 23.6946 13.0488C24.248 13.0488 24.7787 13.2687 25.17 13.6599C25.5613 14.0512 25.781 14.5818 25.781 15.1352L25.7793 26.2363C25.779 26.7896 25.5592 27.3202 25.168 27.7114C24.7768 28.1027 24.2462 28.3225 23.6929 28.3227H6.74159ZM12.6861 18.8427C12.685 19.268 12.7915 19.6867 12.9955 20.0599C13.1215 20.2906 13.2822 20.4993 13.4713 20.6791C13.6857 20.8831 13.8483 21.1669 13.8464 21.4629C13.8444 21.7957 13.8433 22.1815 13.8433 22.2084L13.8433 24.1024C13.8437 24.379 13.9536 24.6442 14.1492 24.8397C14.3447 25.0353 14.6099 25.1453 14.8865 25.1456H15.6941C15.9706 25.1454 16.2358 25.0354 16.4313 24.8399C16.6269 24.6443 16.737 24.379 16.7372 24.1024V22.228C16.7374 22.201 16.7364 21.8055 16.7343 21.4662C16.7325 21.1685 16.8961 20.8819 17.1113 20.6762C17.386 20.4136 17.5997 20.0912 17.7343 19.7314C17.9263 19.2181 17.9466 18.6564 17.7926 18.1305C17.6386 17.6046 17.3184 17.1427 16.8798 16.8141C16.4413 16.4855 15.9079 16.3078 15.3599 16.3076H15.2219C14.5497 16.3083 13.9051 16.5755 13.4297 17.0508C12.9543 17.526 12.6869 18.1705 12.6861 18.8427ZM18.8806 13.0488C19.0908 13.0488 19.2611 12.8784 19.2611 12.6682L19.2595 9.02421C19.2587 8.29822 18.9701 7.60228 18.4568 7.08892C17.9434 6.57556 17.2472 6.28671 16.5212 6.28592H14.0437C13.2832 6.28689 12.5542 6.58947 12.0165 7.12725C11.4787 7.66502 11.176 8.39408 11.175 9.15461L11.1766 12.6686C11.1767 12.8786 11.347 13.0488 11.557 13.0488H18.8806Z" fill="white"/>
</svg>
