<svg width="31" height="31" viewBox="0 0 31 31" fill="none" xmlns="http://www.w3.org/2000/svg">
<path d="M15.2178 11.1538C17.2433 11.1542 18.8844 12.7955 18.885 14.821C18.885 16.8469 17.2437 18.491 15.2178 18.4914C13.1916 18.4914 11.5474 16.8472 11.5474 14.821C11.548 12.7953 13.192 11.1538 15.2178 11.1538Z" fill="white"/>
<path fill-rule="evenodd" clip-rule="evenodd" d="M7.47351 6.73172C10.9778 4.18564 19.0864 4.18592 22.5912 6.73172C25.5197 8.86022 28.0763 11.4752 28.8355 12.2764C28.9892 12.4384 29.1601 12.5836 29.3269 12.732C30.8054 14.0484 30.8057 16.3844 29.3269 17.7007L28.8355 18.1562L27.9505 19.0608C26.7748 20.2348 24.788 22.1076 22.5912 23.7042L22.2496 23.9352C18.5846 26.2473 10.8688 26.1701 7.47351 23.7042C5.35997 22.1681 3.5744 20.377 2.49175 19.1975L1.65874 18.2539L1.02748 17.6226C-0.342401 16.3196 -0.342585 14.1129 1.02748 12.8101L1.65874 12.1788C2.32916 11.3909 4.12019 9.3782 6.44527 7.51591L7.47351 6.73172ZM15.0324 8.15368C12.4406 8.15365 10.3637 8.74976 9.43237 9.42597C6.9276 11.2463 4.89643 13.5171 4.1968 14.3394C3.76375 14.8484 3.76399 15.5873 4.1968 16.0965C4.89742 16.9207 6.92966 19.1911 9.43237 21.0099C10.3638 21.6859 12.4407 22.2826 15.0324 22.2822C17.6243 22.2816 19.7011 21.6833 20.6324 21.0067C23.31 19.0607 25.6976 16.6226 26.4146 15.8655C26.7593 15.5015 26.7596 14.9342 26.4146 14.5704C25.6982 13.8145 23.3107 11.3727 20.6324 9.42597C19.7006 8.74992 17.623 8.15404 15.0324 8.15368Z" fill="white"/>
</svg>
